<svg xmlns="http://www.w3.org/2000/svg" version="1.1" xmlns:xlink="http://www.w3.org/1999/xlink" xmlns:svgjs="http://svgjs.com/svgjs" width="512" height="512"><svg id="SvgjsSvg1000" xmlns="http://www.w3.org/2000/svg" viewBox="0 0 512 512"><defs><style>.cls-1,.cls-2{fill:#3b2c9b;}.cls-1,.cls-3{stroke-width:0px;}.cls-2{stroke:#fff;stroke-miterlimit:10;stroke-width:.25px;}.cls-3{fill:#fff;}</style></defs><line class="cls-2" x1="390.54" y1="159.75" x2="390.54" y2="457.27"></line><line class="cls-2" x1="340.51" y1="160.75" x2="340.51" y2="456.16"></line><line class="cls-2" x1="436.81" y1="173.82" x2="436.81" y2="442.49"></line><line class="cls-2" x1="474.73" y1="201.59" x2="474.73" y2="414.72"></line><line class="cls-2" x1="500.06" y1="235.56" x2="500.06" y2="380.75"></line><path class="cls-1" d="M485.77,225.38c5.49,7.85,10.21,16.3,14.04,25.12v115.32c-3.83,8.82-8.55,17.26-14.04,25.12v-165.55Z"></path><path class="cls-3" d="M486.02,226.18c5.28,7.64,9.83,15.83,13.54,24.37v115.22c-3.72,8.54-8.27,16.73-13.54,24.37v-163.96M485.52,224.59v167.13c5.69-8.04,10.57-16.7,14.54-25.85v-115.42c-3.97-9.15-8.85-17.81-14.54-25.85h0Z"></path><path class="cls-1" d="M458.65,196.2c5.65,4.6,10.97,9.64,15.83,15.01v193.89c-4.86,5.36-10.18,10.41-15.83,15.01v-223.91Z"></path><path class="cls-3" d="M458.9,196.73c5.46,4.48,10.61,9.38,15.33,14.58v193.7c-4.71,5.2-9.86,10.1-15.33,14.58v-222.85M458.4,195.68v224.96c5.83-4.71,11.3-9.87,16.33-15.44v-194.08c-5.03-5.56-10.49-10.72-16.33-15.44h0Z"></path><path class="cls-1" d="M505.44,265.76c4.19,13.7,6.31,27.96,6.31,42.4s-2.12,28.69-6.31,42.4v-84.79Z"></path><path class="cls-3" d="M505.69,267.47c3.86,13.18,5.81,26.85,5.81,40.69s-1.95,27.51-5.81,40.69v-81.38M505.19,264.12v88.08c4.42-13.88,6.81-28.68,6.81-44.04s-2.39-30.16-6.81-44.04h0Z"></path><path class="cls-1" d="M371.42,164.36c6.36.1,12.7.62,18.87,1.55v284.49c-6.17.93-12.52,1.45-18.87,1.55V164.36Z"></path><path class="cls-3" d="M371.67,164.62c6.19.11,12.36.62,18.37,1.51v284.06c-6.01.89-12.19,1.4-18.37,1.51V164.62M371.17,164.11v288.09c6.57-.09,13.04-.63,19.37-1.59V165.7c-6.33-.96-12.8-1.49-19.37-1.59h0Z"></path><path class="cls-1" d="M340.26,449.03c-33.08-6.85-62.78-25.5-83.68-52.52l-.19-.25-.2.24c-5.35,6.37-11.69,12.33-18.87,17.72-27.72,20.83-63.31,31.39-105.77,31.39-20.37,0-40.45-4.92-59.68-14.62-19.6-9.87-30.25-14.67-32.57-14.67-3.47,0-7.55,2.34-12.14,6.97-4.5,4.54-6.82,9.15-6.9,13.71H.25v-120.95h18.33c4,29.12,17.67,54.02,40.63,74.01,22.99,20.04,49.63,30.21,79.18,30.21,15.9,0,33.62-5.23,52.65-15.53,19.08-10.34,28.75-26.06,28.75-46.73,0-33.27-34.26-62.33-101.82-86.37-16.35-5.67-29.99-11.17-40.55-16.35-10.5-5.15-22.13-12.38-34.56-21.51-12.44-9.11-21.9-20.38-28.11-33.5-6.22-13.09-9.37-28.7-9.37-46.41,0-31.93,11.75-57.51,34.93-76.03,23.2-18.54,51.6-27.94,84.41-27.94,19.23,0,39.18,4.34,59.27,12.9,20.43,8.71,31.78,12.94,34.69,12.94,6.92,0,10.45-5.8,10.5-17.23h19.15v102.86h-18.33c-3.45-23.97-15.11-44.52-34.65-61.1-19.6-16.61-42.51-25.04-68.07-25.04-18.2,0-33.62,4.36-45.85,12.97-12.26,8.62-18.47,20.57-18.47,35.52,0,8.62,1.73,16.62,5.15,23.79,3.4,7.15,6.86,12.96,10.28,17.27,3.42,4.31,9.91,9.12,19.3,14.28,9.55,5.25,16.54,8.78,21.38,10.78,4.75,1.98,13.41,5.23,26.49,9.91,13.66,4.91,21.7,7.83,26.05,9.47,25.34,9.84,47.86,23.36,66.93,40.19l.26.23.14-.31c18.75-42.13,56.62-72.78,101.33-82.05v281.75Z"></path><path class="cls-3" d="M124.72,50.14c19.2,0,39.11,4.33,59.17,12.88,20.46,8.72,31.84,12.96,34.79,12.96,7.03,0,10.65-5.8,10.75-17.23h18.65v102.36h-17.86c-3.5-23.94-15.17-44.47-34.71-61.04-19.65-16.65-42.61-25.1-68.23-25.1-18.25,0-33.72,4.38-45.99,13.01-12.33,8.67-18.58,20.69-18.58,35.72,0,8.66,1.74,16.7,5.17,23.9,3.41,7.17,6.88,13,10.31,17.32,3.44,4.34,9.96,9.17,19.37,14.34,9.55,5.25,16.56,8.78,21.4,10.79,4.75,1.99,13.42,5.23,26.5,9.92,13.45,4.83,21.73,7.84,26.04,9.47,25.32,9.83,47.81,23.33,66.86,40.14l.51.45.28-.62c18.68-41.97,56.35-72.52,100.85-81.85v281.13c-32.9-6.89-62.43-25.47-83.23-52.36l-.38-.49-.4.48c-5.33,6.35-11.67,12.3-18.83,17.68-27.68,20.8-63.21,31.34-105.62,31.34-20.33,0-40.37-4.91-59.57-14.59-19.63-9.89-30.32-14.7-32.69-14.7-3.54,0-7.68,2.37-12.31,7.04-4.47,4.51-6.81,9.09-6.97,13.63H.5v-120.45h17.86c4.05,29.08,17.74,53.96,40.68,73.95,23.04,20.09,49.74,30.27,79.34,30.27,15.94,0,33.7-5.24,52.77-15.56,19.16-10.39,28.88-26.18,28.88-46.95,0-16.72-8.61-32.5-25.59-46.89-16.91-14.33-42.61-27.69-76.4-39.72-16.34-5.67-29.97-11.17-40.52-16.34-10.48-5.14-22.1-12.37-34.52-21.49-12.41-9.09-21.84-20.33-28.03-33.4-6.2-13.06-9.35-28.63-9.35-46.3,0-15.93,2.93-30.39,8.71-42.96,5.78-12.58,14.57-23.64,26.13-32.88,23.15-18.5,51.5-27.88,84.26-27.88M124.72,49.64c-33.03,0-61.22,9.34-84.57,27.99C16.79,96.3,5.12,121.71,5.12,153.87c0,17.81,3.12,33.31,9.4,46.51,6.26,13.22,15.66,24.41,28.19,33.59,12.52,9.19,24.05,16.37,34.6,21.53,10.53,5.17,24.05,10.63,40.58,16.37,67.76,24.12,101.65,52.84,101.65,86.14,0,20.67-9.54,36.18-28.62,46.51-19.09,10.34-36.6,15.5-52.53,15.5-29.62,0-55.95-10.04-79.02-30.15-23.06-20.09-36.6-44.79-40.58-74.08H0v121.45h20.5c0-4.59,2.27-9.18,6.83-13.78,4.55-4.59,8.54-6.89,11.96-6.89,2.27,0,13.09,4.89,32.46,14.64,19.35,9.76,39.29,14.64,59.8,14.64,42.71,0,78.01-10.47,105.92-31.44,7.25-5.44,13.55-11.37,18.91-17.76,20.55,26.58,50.15,45.71,84.12,52.67V166.97c-45.56,9.34-83.23,40.53-101.8,82.26-19.17-16.92-41.51-30.34-67.01-40.24-4.56-1.72-13.24-4.87-26.05-9.47-12.81-4.59-21.65-7.89-26.48-9.91-4.85-2-11.96-5.6-21.36-10.77-9.4-5.17-15.8-9.91-19.22-14.21-3.42-4.31-6.83-10.04-10.25-17.23-3.42-7.17-5.12-15.07-5.12-23.69,0-14.93,6.11-26.7,18.37-35.32,12.24-8.61,27.47-12.92,45.7-12.92,25.63,0,48.26,8.33,67.91,24.98,19.65,16.66,31.18,37.04,34.6,61.16h18.79V58.26h-19.65c0,11.49-3.42,17.23-10.25,17.23-2.86,0-14.39-4.31-34.59-12.92-20.22-8.61-40.02-12.92-59.37-12.92h0Z"></path><path class="cls-1" d="M421.46,174.33c5.14,2.05,10.22,4.42,15.1,7.07v253.51c-4.88,2.65-9.96,5.02-15.1,7.07V174.33Z"></path><path class="cls-3" d="M421.71,174.7c4.97,1.99,9.88,4.3,14.6,6.85v253.22c-4.73,2.56-9.64,4.86-14.6,6.85V174.7M421.21,173.96v268.39c5.37-2.12,10.58-4.56,15.6-7.29v-253.81c-5.03-2.73-10.24-5.17-15.6-7.29h0Z"></path></svg><style>@media (prefers-color-scheme: light) { :root { filter: none; } }
</style></svg>