<?xml version="1.0" encoding="UTF-8"?><svg id="_4" xmlns="http://www.w3.org/2000/svg" viewBox="0 0 994.09 923.03"><defs><style>.cls-1{fill:#3b2c9b;}.cls-1,.cls-2,.cls-3{stroke-width:0px;}.cls-2{fill:#2e3192;}.cls-3{fill:#5447a8;}</style></defs><g id="Layer_21"><path class="cls-3" d="M724.58,450.73c.11.8.37.35.26-1.86l-.46-1.56.2,3.42Z"/><path class="cls-3" d="M724.86,435.85c-.4-2.58-.98-5.54-1.24-3.83.6,2.53.48,3.16,1.16,5.9.14,2.21-.03,3.86-.18,3.5.13.78,0,3.43.29,4.62.13-1.44.17-3.08.13-4.82-.02-.87-.05-1.78-.11-2.7-.07-.92-.21-1.86-.35-2.8.03-.82.2-.04.29.15Z"/><path class="cls-3" d="M623.68,252.42l1.11.85c-.29-.24-.68-.53-1.11-.85Z"/><path class="cls-3" d="M498.73,207.66c1.02.07,1.45.06,1.51.02-.95-.04-1.73-.08-1.51-.02Z"/><path class="cls-3" d="M475.77,206.78c.49,0,.91,0,1.36,0-.52-.03-1.04-.03-1.36,0Z"/><path class="cls-3" d="M623.68,252.42l-2.85-2.19c-.28-.03,1.44,1.15,2.85,2.19Z"/><path class="cls-3" d="M720.23,406.45c.15.73.3,1.34.45,1.89-.12-.6-.24-1.18-.36-1.78-.03-.03-.05-.05-.09-.1Z"/><path class="cls-3" d="M667.56,292.06l.72.83c.25.21.49.4.72.58l-1.44-1.4Z"/><path class="cls-3" d="M693.89,329.12c-.5-.9-.99-1.03-1.32-1.3.42.43.86,1.05,1.33,1.82.07-.02.07-.18-.01-.53Z"/><path class="cls-3" d="M719.58,396.22l.34,1.23c-.09-.32-.23-.86-.34-1.23Z"/><path class="cls-3" d="M644.82,268.74c-.02-.09-.12-.23-.23-.37-.03.03.07.17.23.37Z"/><path class="cls-3" d="M718.12,502.54s.04,0,.06.01c.02-.26.02-.35-.06-.01Z"/><path class="cls-3" d="M725.52,450.73v.73c.07.08.13.16.2.16l-.2-.89Z"/><path class="cls-3" d="M433.88,211.01c.08-.01.11-.02.19-.03,1.08-.23.47-.12-.19.03Z"/><path class="cls-3" d="M243.79,502.43c-.67-4.33,2,6.85.86.36,0,.63-1.89-5.72-.86-.36Z"/><path class="cls-3" d="M720.07,405.29c-.11-.6-.22-1.21-.33-1.82.14.83.24,1.39.33,1.82Z"/><path class="cls-3" d="M244.65,502.79h0s-.12-.67-.12-.67c.05.28.08.43.12.67Z"/><path class="cls-3" d="M345.03,248.75c.2-.06.54-.25.89-.45-.05-.01-.25.08-.89.45Z"/><path class="cls-3" d="M410.08,217.83l-1.71.53c.68-.2,1.23-.37,1.71-.53Z"/><path class="cls-3" d="M316.1,272.61c-.72.65-.99.84-1.92,1.79.1-.07.2-.15.32-.25.31-.37.76-.82,1.6-1.55Z"/><path class="cls-3" d="M289.84,301.41c.14-.15.33-.35.5-.52.23-.31.51-.67.75-.98l-1.25,1.51Z"/><path class="cls-3" d="M666.7,606.7c.63-.57,1.06-.9,1.41-1.14-.58.29,3.06-4.06-1.41,1.14Z"/><path class="cls-3" d="M720.42,406.39c-.13-.21-.23-.52-.35-1.1.08.44.17.86.25,1.26.07.1.13.12.11-.16Z"/><path class="cls-3" d="M316.88,275.73l-4.47,4.19c1.27-1.16,2.89-2.68,4.47-4.19Z"/><path class="cls-3" d="M415.85,682.72l1.37.34c-.52-.16-1-.28-1.37-.34Z"/><path class="cls-3" d="M300.09,293.31c-.81.75-1.63,1.58-2.45,2.45-.14.21-.32.44-.4.6l2.84-3.05Z"/><path class="cls-3" d="M668.12,605.55s-.01,0-.01,0c0,0,0,0,.01,0Z"/><path class="cls-3" d="M690.6,572.03c-2.92,5.05-.97,2.61-1.36,3.83-3.65,5.96-2.03,2.54-3.51,4.41-1.12,1.86-2.04,3.56-2.91,5.13-.91,1.54-1.8,2.93-2.75,4.25-.2.15-.59.65-.24,0-.59.99-1.38,2.19-2.28,3.49-.45.65-.93,1.33-1.41,2.03-.52.67-1.06,1.36-1.6,2.06-2.17,2.76-4.34,5.65-5.88,7.87-.29.28-.46.4-.55.46.75-.51,1.02-.46,1.03-.22-1.72,1.99-2.97,3.88-3.85,4.43,1.06-1.21,1.06-1.4,1.48-2.03l-1.7,2.17c-1.95,1.59,2.35-2.94,2.1-3.15-1.69,2.09-3.51,4.35-5.24,6.5-1.81,2.07-3.57,3.98-5.03,5.43-.9.32,6.53-7.06,2.47-3.35l2.25-2.25,2.14-2.35c-3.69,3.22,2.56-2.89-.9,0-.69.78-1.31,1.48-1.86,2.11-.58.61-1.1,1.16-1.58,1.67-.95,1.03-1.74,1.89-2.52,2.75-.79.86-1.58,1.72-2.52,2.74-.93,1.04-2.11,2.16-3.65,3.57-1.19,1.47.7-.18-.5,1.29-2.07,2.13-3.58,3.54-4.77,4.57-1.21,1-2.12,1.58-2.93,2.13-1.63,1.08-2.95,1.91-6.06,4.98-1.55,1.65-1.93,2.59-6.99,6.21l1.37-1.69c-3.19,2.48-3.99,3.34-4.9,4.13-.9.81-1.86,1.62-5.41,3.95,1.12-1.03,5.09-3.82,4.06-3.16-4.7,2.87-3.01,2.48-6.45,4.93-.32.05-.64.1-.96.14-1.8,1.19-3.64,2.4-5.52,3.64-1.88,1.23-3.75,2.57-5.77,3.73-3.99,2.37-8.01,4.95-12.3,7.07.41-.35,1.8-1.22-.24-.32-1.33.7-2.68,1.42-4.05,2.14-.69.36-1.38.72-2.07,1.08-.71.32-1.43.65-2.15.98-2.88,1.3-5.79,2.61-8.72,3.87-2.98,1.12-5.95,2.24-8.85,3.33-.73.27-1.44.55-2.17.8-.73.23-1.45.46-2.17.69-1.44.45-2.85.9-4.23,1.33l-4.08,1.77c-.98.33-1.89.38-.83.01-4.39,1.1-.16.29-2.21,1.02-2.47.73-3.33.72-1.79.17-7.5,2.81-21.95,6.09-30.32,7.06l1.6-.4c-1.62.27-2.88.48-3.96.65-1.08.2-1.97.4-2.85.59-1.75.39-3.46.75-6.5.96l1.15-.21c-7.09.62-14.56,1.26-21.63,1.32-1.77.04-3.51.1-5.21.1-1.7-.06-3.36-.12-4.98-.18-1.61-.08-3.17-.15-4.66-.22-1.49-.07-2.92-.17-4.27-.37-1.04.19-4.55-.14-7.92-.43-.84-.07-1.67-.14-2.46-.2-.78-.09-1.51-.17-2.15-.24-1.28-.12-2.21-.15-2.46,0-4.01-.7-5.43-1-7.26-1.35-1.82-.4-4.05-.92-9.65-2.04-3-.52-4.54-.46-8.25-1.21v-.4s-5.09-.76-5.09-.76c-.85-.34-1.69-.75-2.52-1.15l-3.43-.87c1.35.41,2.84.99,2.6,1.04-2.69-.67-5.92-1.66-8.48-2.5-2.54-.92-4.39-1.76-4.43-1.86l-6.25-1.94c-2.09-.64-4.11-1.47-6.16-2.19.33-.04,2.38.71,4.03,1.26-6.64-2.19-1.03-.85-7.11-2.85.76.4-.52.04-.68.06-.71-.36-1.7-.74-2.78-1.28-1.1-.52-2.34-1.1-3.65-1.71-1.31-.59-2.69-1.21-4.04-1.83-1.36-.59-2.7-1.18-3.89-1.8l1.03.23c-2.15-1.11-4.37-2.24-6.63-3.4-1.13-.58-2.29-1.14-3.42-1.75-1.13-.64-2.26-1.28-3.4-1.93-2.28-1.3-4.63-2.58-6.93-3.95-2.27-1.44-4.56-2.9-6.85-4.36,3.22,2.21,2.21,2.12-.51.43l-.85-1.03c-1.88-.9,2.73,1.93-1.02-.1-3.32-2.36-1.98-1.96,0-.72l-4.11-2.74c-.17-.27.82.35,1.15.4-1.79-.99-6.75-5.2-9.25-6.75l-.14-.27c-2.14-1.67-3.99-3.12-5.67-4.43-1.66-1.34-3.08-2.61-4.5-3.8-1.41-1.2-2.77-2.35-4.2-3.57-1.42-1.23-2.82-2.62-4.44-4.13-.37.14-2.82-2.31-4.94-3.93-2.2-2.41-4.51-4.96-6.94-7.62-.62-.66-1.21-1.35-1.8-2.06-.59-.71-1.19-1.42-1.8-2.14-1.23-1.43-2.48-2.89-3.76-4.38-.95-1-1.47-1.6-1.77-1.93-.31-.33-.4-.39-.44-.37-.08.03.08.37-.77-.55,0-.52-4.87-6.67-2.17-3.62-1.45-1.86-2.71-3.32-3.72-4.76-1.03-1.42-1.96-2.7-2.94-4.05-.98-1.34-2.02-2.74-3.24-4.41-1.15-1.72-2.49-3.71-4.15-6.19.59,1.16,1.33,2.42.82,1.84-1.22-1.8-2.55-4.22-2.25-4.04l.34.46c-3.71-5.58-7.36-12.42-10.44-19.13-1.66-3.3-2.97-6.66-4.33-9.72-.67-1.53-1.34-3-1.99-4.37-.58-1.41-1.16-2.72-1.72-3.93l.25.54-2.19-5.08c-.36-.85-.74-1.69-1.09-2.54l-.97-2.59c-1.58-4.84,1.21,2.81.19-.82-1.08-2.78-2-5.28-2.81-7.62-.7-2.38-1.31-4.58-1.9-6.73-.29-1.07-.58-2.13-.87-3.18l-.44-1.58c-.12-.53-.25-1.07-.37-1.61-.5-2.16-1.04-4.36-1.68-6.74-.1-.95-.27-2.07-.49-3.33-.17-1.27-.37-2.67-.62-4.17-.26-1.5-.53-3.1-.82-4.76-.3-1.66-.64-3.37-.84-5.13-.46-3.5-.99-7.08-1.37-10.43-.25-3.36-.44-6.49-.48-9.05l-.18.6c-.42-2.63-.14-3.2-.12-5.15-.17.28-.13,2.88-.29,1.24-.09-2.81-.18-5.63-.28-8.48-.02-1.42-.13-2.85-.07-4.28.04-1.43.08-2.87.12-4.31.04-1.44.09-2.88.13-4.33.05-1.44.06-2.89.22-4.34.25-2.89.5-5.79.75-8.69l.2-2.18.3-2.17.61-4.33c.41-2.89.77-5.78,1.38-8.63.55-2.86,1.1-5.71,1.64-8.55.68-2.81,1.36-5.62,2.03-8.41.93-4.09,1.08-5.29,1.23-6.77.18-1.47.49-3.2,2.2-8.23l-.42,3.02c4.33-16.44,11.66-32.72,19.38-47.43-.4.91-.34.98-1.07,2.43.45-.75,1.09-1.83,1.8-3.01.7-1.19,1.44-2.51,2.11-3.75,1.35-2.47,2.41-4.61,2.33-4.69,1.42-2.17.52-.39,1.48-1.66,1.03-1.43,2.14-3.34,3.15-5.07,1.01-1.73,1.92-3.29,2.61-3.95.23-.23-.5.85-.84,1.41,1.19-1.97,6.22-8.69,4.66-7.11,1.83-2.53,3.68-4.87,5.4-7.11.87-1.12,1.71-2.21,2.52-3.26.42-.52.83-1.03,1.23-1.53.44-.48.87-.94,1.29-1.4,1.85-2.69,7.08-8,7.47-9.03.14.73,7.8-7.68,10.6-10.47-.84,1.04,2.61-2.24,1.65-1,3.19-3.17,6.32-5.86,5.51-5.59,3.37-2.45,6.37-5.34,9.28-7.67,1.43-1.19,2.77-2.31,4.02-3.27.62-.48,1.22-.92,1.8-1.3.58-.38,1.16-.68,1.7-.93,2.68-2,5.32-3.96,7.91-5.88,2.69-1.79,5.33-3.56,7.94-5.3.66-.43,1.3-.88,1.96-1.29.67-.4,1.34-.8,2-1.19,1.33-.79,2.66-1.58,3.97-2.36,1.32-.78,2.63-1.56,3.94-2.33,1.34-.71,2.68-1.41,4.01-2.12-.03.18-.79.65-1.89,1.26-.56.3-1.19.64-1.87,1-.66.38-1.36.79-2.06,1.19-2.77,1.62-5.44,3.17-5.06,3.3,2.43-1.49,4.61-2.82,6.66-4.07,2.08-1.19,4.06-2.26,6.02-3.36.99-.54,1.97-1.08,2.97-1.62.5-.27,1.01-.54,1.52-.82.53-.25,1.06-.5,1.6-.76,2.17-1.01,4.48-2.06,7.07-3.2,2.71-1.14-1.42.91-2.28,1.41,1.29-.61,2.57-1.21,3.84-1.81,1.27-.59,2.58-1.07,3.86-1.59,2.57-1.01,5.1-2.01,7.59-3,2.54-.87,5.03-1.72,7.5-2.57,1.23-.43,2.45-.86,3.66-1.29,1.23-.38,2.45-.76,3.66-1.14-.01.06-1.05.41-2.03.74,1.92-.56,4.5-1.19,4.21-1.38l-1.86.6c-3.19.52,7.44-2.95,7.75-3.21-3.13,1.49,9.85-2.08,4.79.05,1.27-.34,2.86-.83,2.52-.94,1.92-.39,2.54-.43.65.21,1.74-.44,2.88-.75,3.72-.98.85-.2,1.39-.34,1.91-.48,1.04-.27,2-.51,5.2-1.08,0,.13-1.28.41-1.92.67,3.19-.81,6.4-1.73,11.88-2.24-.32.12.33.13-1.3.34,2.34-.31,4.5-.63,6.59-.95.52-.08,1.04-.16,1.56-.24.52-.06,1.03-.11,1.55-.17,1.03-.11,2.05-.22,3.08-.33,2.06-.22,4.15-.44,6.37-.63,1.11-.12,2.26-.13,3.45-.16,1.19-.01,2.43-.03,3.73-.04-3.04.62,3.53.09,4.08.55.93-.04,1.85-.11,2.78-.12h2.78s-2.23-.29-2.23-.29c2.44.07,4.74.04,6.95.03,2.21.01,4.35-.07,6.43.22l-1.81-.04-1.82.05c1.53,0,3.04.11,4.57.21l4.56.3-5.15-.57c4.95.13-.49-.64,5.99-.01-1.33-.04,4.89.31,7.37,1.01h-.02c2.42.15,4.91.31,8.48.88.91.27-.83.42-.24.6,1.21-.05,4.02.47,6.92.95,2.9.5,5.89.94,7.39,1.13-1-.13-1.1.1-.79.22l2.02.14c2.18.61,2.49.73,2.09.84,6.61,1.59-1.97-1.07,5.84,1-.62-.12-.34,0-1.64-.25,7.83,2.09,15.18,3.93,22.17,6.56,1.93,1.15-6.2-1.98-3.95-.79,10.25,3.15,21.02,7.31,30.35,11.91l-1.7-.93c.79.02,2.48.98,4.57,2.2,2.08,1.24,4.61,2.63,6.97,3.79-1.14-.61-1.65-.49-1.31-.4,3.07,1.81,6.23,3.59,9.83,5.56,1.77,1.03,3.6,2.18,5.59,3.38.99.61,2.02,1.23,3.09,1.88.53.33,1.08.66,1.63,1,.54.36,1.09.73,1.65,1.11l-1.19-.63c1.67,1.28,3.9,2.9,6.18,4.53,1.13.83,2.31,1.61,3.36,2.45,1.05.84,2.05,1.64,2.93,2.35,1.16.69,3.19,2.32,2.1,1.15,1.29,1.18,2.61,2.3,3.9,3.42,1.26,1.16,2.52,2.29,3.78,3.39,2.52,2.2,5.08,4.26,7.43,6.49,1.2,1.09,2.38,2.17,3.56,3.25,1.17,1.08,2.36,2.13,3.43,3.3,2.18,2.28,4.3,4.58,6.29,6.96-1.02-1.07-2.55-2.45-1.74-1.6l1.85,1.88c.61.63,1.18,1.31,1.77,1.96l3.52,3.94c-.33-.82-.77-1.16-2.06-2.99,1.01.9,3.07,3.07,4.79,5.05-1.63-1.74-1.72-1.65-1.24-.93.48.72,1.52,2.08,2.07,2.96-.14-.33.37.16.33-.03,3.01,4.67,1.03.36,5.42,6.52l-.37-.22c.46.54.9,1.07,1.35,1.6.42.54.84,1.09,1.27,1.63.85,1.1,1.7,2.23,2.56,3.48.46,1.22-1.87-2.36-2.21-2.35,2.47,3.48,5.49,6.47,7.23,9.97-1.06-1.48-2.45-3.69-3.62-5.09.53.91.95,1.62,1.3,2.21.33.6.61,1.09.88,1.53.55.88,1.02,1.65,1.85,2.98l-.16-.26c1.24,2.07,2.53,4.1,3.72,6.2-.26-.56-.57-1.09-.87-1.62,1.8,2.03,3.13,4.42,4.62,6.97.74,1.28,1.51,2.61,2.32,4.01.76,1.43,1.59,2.91,2.54,4.45-3.68-5.99-.81-.88-1.39-1.19.74,1.69,1.91,4.22,1.45,3.56.9,1.45,1.52,2.72,2.17,4.18.62,1.47,1.32,3.09,2.52,5.18-.02.25,1.49,3.32.89,2.74,1.91,3.99-.23-1.04.06-.76,3.19,6.06,5.62,14.99,9.2,24.12.39.99.67,1.89.94,2.72.27.82.52,1.57.76,2.26.48,1.38.89,2.55,1.3,3.7.4,1.15.8,2.29,1.26,3.6.4,1.33.8,2.85,1.3,4.75.41,2.63-.93-2.01-.93-2.01.39,2.11.78,3.94,1.2,5.74.41,1.8.91,3.54,1.29,5.52-.25-.78-.19.06-.11,1.3.6,3.17.82,2.05,1.39,6.28-.26-.7-.65-1.59-1.06-3.1.41,1.86.82,3.71,1.23,5.58.33,1.88.65,3.78.96,5.73-.08,1.06-.62-2.32-.94-3.68.64,4.38,1.69,11.35,2.01,12.7l-.1-2.85c.14,1.61-.2.85-.4-.32-.74-3.74-.57-5.45-.48-5.68l.43,2.78c.18-1.47-.21-4.28-.72-7.41-.22-1.57-.65-3.2-.98-4.79-.35-1.59-.67-3.15-.91-4.54l.93,2.23-1.45-5.64c-.03-.62-.06-1.15.04-1.19.09-.04.31.42.58,1.79-.1-1.02-.23-1.74-.38-2.3-.13-.57-.25-.98-.37-1.38-.23-.8-.44-1.53-.69-3.26-.04-.39.02-.22.12.12l-1.05-3.84c.28.73.21-.73.69,1.67-.34-1.75-.65-3.34-1.05-4.74-.41-1.4-.81-2.64-1.17-3.74-.72-2.21-1.27-3.89-1.45-5.24l.19.57c-.37-1.18-.63-2.09-.87-2.77-.25-.67-.43-1.13-.57-1.44-.26-.62-.33-.64-.38-.59-.1.11-.14.51-1.54-2.92l-.7-5.05-.67-.79c-.34-.96-1.07-2.85-.78-2.56-1.64-3.44.08.66-.96-1.3-.76-2.34-1.98-5.5-3.14-8.17-1.21-2.65-2.19-4.88-2.14-5.51-.99-1.49,1.73,4.38-.62-.32,0-.82-.66-2.19-1.5-3.88-.9-1.67-2.06-3.62-2.94-5.69.93,1.07,2.71,4.95.93.8-.88-1.08-1.84-3.04-2.82-5.15-1-2.1-2.15-4.28-3.13-5.9-.24.04-1.31-1.73-2.73-4.18-1.45-2.43-3.44-5.45-5.2-8.1.44.19-6.47-10.08-10.03-14.83l.17.09c-.54-.31-1.73-1.68-3.15-3.4-.7-.87-1.46-1.81-2.23-2.76-.76-.95-1.6-1.83-2.33-2.67.32-.04.95.47,2.59,2.25-.88-1.09-1.82-2.12-2.72-3.18-.76-.65-1.67-1.59-3.49-3.6l.95.57c-.92-1.05-1.85-2.09-2.82-3.14-1.01-1.01-2.04-2.03-3.11-3.09-1.06-1.06-2.15-2.17-3.28-3.34-.56-.59-1.13-1.19-1.71-1.81-.6-.6-1.22-1.22-1.85-1.85-.51-.04,3.48,4.56-2.13-.49-.08-.32-.08-.73,1.41.59-.49-.43-1.77-1.49-2.67-2.44l2.39,1.87c-2.27-2.34-1.4-1-3.27-2.81.21-.15-1.27-1.46-.87-1.35.5.44,1.58,1.64,2.37,2.26-1.05-1.03-2.19-2.19-3.16-3.2-.96-1.03-1.84-1.82-2.21-2.29.1.27-.22.25-1.87-1.14-4.22-3.63-1.24-1.47-3.62-3.7-1.1-.79-3.79-3.12-4.1-2.88-1.28-1.01-1.41-1.33-1.84-1.8-1.2-.81-3.81-2.94-5.94-4.43-2.14-1.47-3.68-2.48-2.47-1.38l.59.45c-.12-.08-.25-.17-.39-.26h.02s-.02,0-.02,0c-1.98-1.29-3.95-2.66-5.93-4.06-2-1.38-4.07-2.68-6.1-4.04-4.02-2.79-8.25-5.24-12.35-7.51l.07-.1c-2.43-1.39-5.26-2.7-7.85-4.02-2.61-1.28-5.02-2.53-6.92-3.18-1.5-.68-3.46-1.81-2.75-1.66-1.97-.83-3.07-1.29-4.38-1.84-1.29-.6-2.84-1.21-5.67-2.44,4.08,1.38-1.31-.72,4.16,1.47-5.13-2.12-6.22-2.83-11.92-4.62,2.04.35-3.83-1.72-6.37-2.48l3.62,1.47c-2.83-.91-5.28-1.77-7.78-2.64l1.48.05c-1.32-.55-2.66-.92-3.96-1.31-1.3-.38-2.58-.74-3.84-1.07-2.52-.64-4.91-1.32-7.28-1.71-2.36-.45-4.63-.9-6.82-1.41-1.1-.27-2.18-.53-3.25-.79-1.08-.24-2.14-.5-3.18-.8-3.02-.24,6.05,1.29,3.33,1.15-5.13-.97-10.4-2.55-12.03-2.8-3.55-.57-5.23-.63-6.95-.68-.86-.03-1.73-.05-2.85-.14-.56-.04-1.18-.1-1.9-.19-.72-.06-1.53-.13-2.46-.22.94.22,1.8.69-3.78.41-5.2-.45-6.37-1.12-3.07-.98,1.25.08,1.86.18,1.8.22,1.69.07,3.91.18,1.86-.14l-.69.1c-1.29-.17-3.73-.4-5.64-.59-1.91-.16-3.29-.2-2.44-.32-3.97.04-1.7.2,1.23.35-3.36-.19-5.98-.26-8.63-.32-1.33-.01-2.66-.1-4.09-.06-1.43.02-2.97.04-4.7.06,1.1.05,2.12.21,1.02.23-5.07.04-6.19.13-6.89.26-.35.06-.6.13-1.19.19-.59.09-1.52.21-3.23.35-3.91.07,1.36-.65-5.53.07-4.23.17-.93-.33.74-.58-1.57.19-3.09.33-4.54.44-1.45.18-2.83.32-4.13.44-2.6.24-4.88.39-6.67.6l3.29-.54c-1.97.34-3.59.5-5.23.76.64-.03,1.28.02,1.93.03-.98.08-1.87.21-2.51.32-.65.09-1.05.13-1.04.07-1.95.55,1.59.22-2.29,1.19-1.29.15-3.23.54-4.97.86-.87.16-1.69.3-2.35.39-.66.11-1.15.18-1.39.13,1-.23,1.74-.36,2.28-.45.54-.1.88-.17,1.07-.22.39-.1.23-.13.03-.16-.4-.06-.96-.11,2.45-.75-1.31.29-2.92.56-4.85.87-.3.02.25-.15.78-.26-7.74,1.36-3.43,1.23-11.34,3.04.47-.22,0-.22-.77-.12-.76.11-1.79.38-2.42.58,3.15-.89,1.6-.07-1.24.92-5.05,1.25-5.4,1.67-8.03,2.39l3.01-.77c-.47.25-1.34.55-2.52.91-1.17.38-2.63.92-4.34,1.52-.35-.07,3.08-1.17,1.83-.83-1.84.83-4.03,1.46-6.41,2.14-1.18.36-2.44.66-3.68,1.13-1.25.46-2.52.96-3.8,1.54-2.48.81-.39-.3-2.55.44-2.88,1.29-4.5,1.83-6.11,2.51-1.62.64-3.29,1.3-6.26,2.77,1.87-.51,2.14-.72-1.98,1.47l9.82-4.67-6.18,3.27c1.49-.67,3.05-1.43,4.46-2.11,1.41-.69,2.67-1.3,3.61-1.61-1.51.7-2.15,1.09-2.26,1.17-.1.09.35-.06,1.11-.27-2.13.71-4.13,1.69-6.2,2.72-2.06,1.05-4.24,2.04-6.58,3.13l-.19-.74c-1.77.82-3.43,1.64-5.04,2.49-.81.43-1.61.86-2.41,1.29-.4.22-.8.44-1.21.66-.39.24-.79.49-1.19.73-1.61.98-3.27,2-5.08,3.1-1.81,1.1-3.81,2.18-5.95,3.55.95-.53,1.85-1.13,2.83-1.61-1.03.92-5.25,3.39-7.96,5.25.12-.37-1.66.65-2.92,1.29.24.05-6.06,4.29-6.52,5.23-1.28.8-2.61,1.53-3.84,2.41-6.51,4.97-6.98,6.23-12.91,11.35,1.61-1.75-1.21.45,2.65-3.15-1.99,1.72-3.8,3.23-3.72,3.39-.62.45-1.97,1.68-3.34,3.04-1.35,1.39-2.78,2.84-3.73,3.59-.73.84-.81,1.28-2.95,3.3-.27.19-.08-.1-.08-.1.04.05-.78.86-1.31,1.5-.53.64-.82,1.06.16.23-6.21,5.22-15.36,16.5-19.99,21.8-.87,1.14-1.78,2.33-2.71,3.55-.92,1.23-1.78,2.53-2.67,3.8-1.75,2.55-3.54,4.99-4.95,7.16.12-.32-.09-.08.46-.9-4.05,5.92-1.81,4.08-6.35,10.84-1.21,1.7-.72.73-.1-.39.62-1.12,1.46-2.33.68-1.29-.69.24-1.86,2.41-3.31,5.05-1.42,2.66-3.18,5.74-4.58,8.11l.56-1.21c-2.13,3.63-4.52,9.2-7.28,15.48,0,0,.07-.33-.1-.09-.39,1.11-.9,2.45-1.49,3.94-.61,1.47-1.13,3.16-1.77,4.85-1.2,3.42-2.69,6.99-3.61,10.16.35-2.05.8-2.89.09-1.82-.9,2.81.77-.64-1.03,4.97-.76,1.76-2.33,5.72-2.75,6.19.48-1.79,1.15-3.53,1.71-5.3-.66,1.28-1.27,2.98-1.75,4.73-.45,1.76-.85,3.54-1.29,4.94l-.09-.42c-2.34,8.22-1.69,8.5-3.82,17.41l.36-.89c-.36,2.48-.53,3.51-.81,4.52-.27,1.01-.55,2.03-.81,4.52l-.76,1.4c-.11.82-.27,1.95-.45,3.27-.12,1.33-.26,2.85-.4,4.46-.15,1.6-.31,3.29-.46,4.94-.16,1.65-.34,3.27-.4,4.75-.11-1.69.14-4.25.34-6.94.23-2.68.45-5.49.66-7.63-.47,3.25-1.39,11.07-1.36,12.78.11-1.32.21-2.98.45-4.27-.23,4.03-.31,9.32-.84,15.81-.5-.61-.69,3.64-.84,8.64-.28,4.99.04,10.72-.32,13.11l.21,4.33c.12,1.44.24,2.88.36,4.33.24,2.89.37,5.82.65,8.8.34,2.97.68,6,1.04,9.13.09.78.19,1.57.29,2.36.14.79.27,1.58.41,2.38.29,1.6.58,3.23.87,4.89-.1-4.84.71,3.87,1.33,2.91.28,1.54.55,2.59.71,3.3.16.71.23,1.07.23,1.21.57,3.11,1.1,6.24,1.71,9.36.2,1.11-.05.41-.34-.54-.26-.96-.57-2.16-.62-2,.36,1.68.59,2.7.75,3.34.15.65.18.94.19,1.16.02.44-.06.61.47,2.83.01-.97,1.03,2.2,2.01,6l-1.17-5.42c.76,2.28,1.24,3.93,1.58,5.27.36,1.33.65,2.33.9,3.35.51,2.03,1.03,4.07,2.78,8.6l-1.21-2.83c.78,2.37,2.53,6.62,4.26,10.86.44,1.06.88,2.11,1.3,3.14.49,1,.96,1.97,1.4,2.88.9,1.81,1.72,3.36,2.36,4.4.28.84.57,1.99-.38.02,4.91,10.85,12.64,23.25,17.54,31.06l-.64-.66c1.27,1.82,2.32,3.09,3.81,5.44-.15-.07-.67-.62-.09.22.74.92,3.68,4.61,5.3,7.07l-1.63-1.92c1.59,2.43,3.21,4.42,4.7,6.26,1.49,1.84,2.89,3.49,4.26,5.09,1.42,1.56,2.86,3.03,4.31,4.58,1.47,1.54,2.92,3.2,4.6,4.95-.21.18,1.22,1.95,3.09,4.1,1.87,2.15,4.16,4.7,5.83,6.26l-.17-.05c2.44,2.34,4.7,4.5,6.91,6.5,2.3,1.9,4.48,3.72,6.64,5.51,2.13,1.83,4.42,3.41,6.7,5.12,2.3,1.68,4.6,3.51,7.21,5.22,1.49,1.24,3.57,2.83,6,4.63,2.45,1.78,5.37,3.58,8.37,5.55.75.49,1.51.98,2.28,1.47.77.48,1.57.92,2.36,1.39,1.58.92,3.17,1.84,4.73,2.75,3.09,1.89,6.21,3.46,8.95,4.96-1.65-.96.47-.24,2.47.72,2.52,1.52,7.48,3.08,6.83,3.38l-.95-.44c1.81,1.33,7.3,3.84,11.72,5.46l.97-.34c2.77,1.34,6.01,2.81,9.53,3.95,1.75.59,3.54,1.19,5.33,1.79.9.29,1.78.6,2.68.86.9.24,1.8.49,2.69.73,3.56.93,6.91,1.92,9.82,2.63,2.92.69,5.34,1.33,6.92,1.92,1.47.23,3.08.64,4.72.86,1.64.25,3.27.5,4.73.68l-.22.32c2.02.38,3.79.72,5.46,1.03,1.67.33,3.27.47,4.91.71,1.65.21,3.36.43,5.29.67.96.12,1.98.24,3.08.37,1.1.08,2.27.16,3.54.24l-2.09.1c2.86.23,4.69.11,6.45-.02.88-.07,1.75-.13,2.72-.16.97-.02,2.06,0,3.38,0l1.56.57c2.5.06,5,.15,7.51.25l1.88.07,1.88-.02,3.76-.04c2.51-.05,5.01-.06,7.5-.2,2.49-.21,4.96-.46,7.41-.77-.15.09-.44.27-2.05.41,4.71-.12,18.14-1.64,16.35-2.12.2.59,10.19-1.61,15.42-2.86l-.75.53c4.34-1.46,4.45-1.62,10.61-3.16,1.47-.31,1.35-.03-.62.34,1.24-.22,2.07-.46,2.74-.67.66-.21,1.16-.39,1.68-.58,1.05-.38,2.22-.8,5.16-1.54l-2.12.83c4.96-1.41,4.56-1.32,7.16-2.5,3.02-1.18,9.29-3.03,10.11-3.01.58-.44,3.11-1.71,5.97-2.74.43-.04-.58.44-1.08.67,2.03-.73,3.78-1.42,5.35-2.06,1.56-.68,2.91-1.38,4.2-2,2.57-1.28,4.86-2.34,7.61-3.47.16.05.53-.07.98-.27-1.51.81-3.01,1.44-4.36,2.05-1.34.6-2.55,1.14-3.54,1.59-1.98.89-3.13,1.39-2.9,1.27.13.3,5.21-1.93,1.36.29,1.98-1.03,4.66-2.42,7.45-3.87,2.75-1.5,5.58-3.11,8.03-4.26.25-.09.49-.18.69-.23l-.48.29c1.12-.54,2.11-1.07,3.01-1.61,1.52-.81,2.49-1.32,3.93-2.14.34-.04,1.74-.8,3.35-1.73.8-.47,1.66-.96,2.47-1.43.81-.47,1.53-.98,2.12-1.34-.38-.18,2.69-2.08-.31-.5.38-.22-.41.33-1.96,1.31-.35.22-.78.46-1,.62.04-.03.09-.08.15-.12-1.57.91-3.61,2.09-5.94,3.44,1.8-1.24,3.7-2.51,6.44-3.86,1.11-.9,2.27-1.98,2.96-2.54,1.72-.81,4.14-2.14,6.27-3.3,1.08-.57,2.04-1.15,2.8-1.61.76-.45,1.33-.76,1.58-.85,1.7-1.25,3.55-2.62,5.43-4.01.96-.67,1.88-1.41,2.79-2.16.91-.74,1.82-1.48,2.71-2.2,1.77-1.45,3.46-2.84,4.92-4.13,1.41-1.35,2.63-2.55,3.52-3.55,1.75-1.63,2.21-1.66,2.95-2.16-1,.96-2.25,2.03-2.75,2.59.88-.82,1.98-1.81,3.16-2.85.59-.52,1.19-1.06,1.79-1.59.57-.56,1.15-1.13,1.7-1.67,2.2-2.17,4.05-4.06,4.3-4.62,2.25-2,1.72-1.34,1.36-.9-.18.22-.31.39-.03.14.28-.26,1-.89,2.4-2.43l-.67.91c2.94-2.83,5.53-5.48,7.9-8.11,2.27-2.72,4.37-5.36,6.51-8.04,2.09-2.72,4.08-5.58,6.39-8.53,1.18-1.46,2.28-3.06,3.5-4.7,1.21-1.64,2.51-3.34,3.92-5.11-.77.99-1.16,1.48-1.37,1.65.76-1.04,1.55-2.07,2.29-3.13.71-1.08,1.42-2.17,2.14-3.26,1.42-2.19,2.86-4.39,4.25-6.62,1.3-2.29,2.61-4.58,3.92-6.88.64-1.15,1.32-2.29,1.94-3.46l1.79-3.54c1.18-2.37,2.4-4.71,3.55-7.08,1.09-2.4,2.17-4.79,3.25-7.18.53-1.19,1.11-2.36,1.62-3.56.49-1.2.98-2.4,1.47-3.6,1-2.38,2-4.75,2.99-7.09,1.98-5.44,1.9-6.13,2.82-9.54l.77-1.07c.47-1.96.83-3.95,1.25-5.92.51-2.08,1.07-3.99,1.66-5.85.54-1.88,1.06-3.73,1.61-5.65.54-1.92,1.1-3.91,1.63-6.1.46-2.2.82-4.6,1.16-7.29l-.5,1.33c.35-1.91.91-4.94,1.26-7.42.31-2.49.58-4.42.68-4.07,0-.4-.1-1.3.22-2.79l.21-.09c.13-1.59.31-3.17.41-4.76l.19-4.77c.35-3.68.53-3.38.72-3.5.1-.06.2-.23.33-1.06.12-.83.34-2.31.38-5.02.03-4.03-.29-11.46-.46-9.95-.05,1.62-.23,4.14-.43,4.25v-3.67c-.59-.67-1.12-3.46-1.75,5.47l.2,6.24-.44,1.99c.16-1.74.18-3.49.22-5.24-.18,1.48-.18,2.7-.22,3.8-.04,1.11-.01,2.11-.01,3.17-.19.49-.36,1.35-.51,2.58l.09,6.15c-.16.36-.19-.34-.28-.61-.09-.28-.14-.12-.48,1.9-.1,2.87.86-2.67.43,2.06-.64,2.93-.75,2.04-.96,5.54-.21.47-.21-.28-.11-1.67-.12,1.55-.31,3.61-.59,5.46-.29,1.85-.54,3.51-.53,4.33-.44,1.5-.88,4.09-1.27,6.26-.45,2.16-.92,3.87-1.15,3.66-.09.98-.81,5.44-1.43,8.24.25-2.63-.28,0-1.21,3.01-.88,3.03-1.89,6.52-2.05,5.76-.14.96-.36,2.32-.83,3.84-.46,1.53-1.02,3.28-1.63,5.11-.61,1.83-1.22,3.76-1.87,5.62-.7,1.84-1.36,3.64-1.91,5.26.1-.37.28-1.11.53-1.66-1.46,3.57-2.04,4.54-3.05,6.8.26.64-2.12,6.16-3.18,9.25-2.38,4.1.66-2.87-.37-1.7.22-.03-.51,1.89-1.23,3.63-.77,1.71-1.48,3.27-.96,2.63-1.91,3.09-1.55,2.71-2.76,4.18.24.84-1.38,3.07-2.59,5.83-2.87,4.39-1.17.88-3.87,5.95-1.52,2.27.83-2.26.83-2.26ZM593.63,665.61h0c1.05-.55,1.94-1.02,2.51-1.31-.52.27-1.24.65-2.5,1.31ZM583.3,670.66c1.28-.57,2.88-1.26,4.54-2.06.41-.09.09.27-.97.73.54-.33-1.97.72-3.57,1.33ZM606.12,661.55c-1.57.96-2.14,1.21-2.39,1.27.75-.44,1.62-.96,2.77-1.64.04-.04.12-.11.17-.15-.12.15-.26.3-.54.52Z"/><path class="cls-3" d="M608.74,659.5c.23-.14.35-.22.63-.42-.33.18-.65.33-.98.49-.17.14-.35.29-.51.42.29-.17.59-.34.85-.5Z"/><path class="cls-3" d="M624.98,253.42l-.19-.15c.16.13.3.25.39.34-.12-.11-.12-.12-.19-.19Z"/><polygon class="cls-3" points="428.26 685.74 428.26 685.84 429.25 685.99 428.26 685.74"/><path class="cls-3" d="M670.29,297.78c.05.11.17.32.44.71,0-.04-.2-.35-.44-.71Z"/><path class="cls-3" d="M686.27,320l1.98,3.33c-.84-1.45-1.47-2.49-1.98-3.33Z"/><path class="cls-3" d="M696.73,338.26c.18.21.25.25.32.3,0-.02-.01-.03-.02-.04l-.31-.26Z"/><path class="cls-3" d="M412.18,219.7c-.27.08-.54.16-.77.24-1.8.61-.58.2.77-.24Z"/><path class="cls-3" d="M510.57,210.08c-1.06-.07-2.1-.14-3.2-.24,1.76.25,3.12.43,3.2.24Z"/><path class="cls-3" d="M317.37,275.28s0,0,0-.01c-.17.16-.32.31-.49.47l.49-.46Z"/><path class="cls-3" d="M502.75,209.48c1.76.21,3.24.3,4.62.36-1.45-.14-3.15-.3-4.62-.36Z"/><path class="cls-3" d="M722.94,425l.11,1.01s.05.04.07.11l-.18-1.12Z"/><path class="cls-3" d="M723.12,426.12l.13,1.12c-.04-.52-.08-.96-.13-1.12Z"/><path class="cls-3" d="M723.51,429.59l-.27-2.35c.06.82.13,1.83.27,2.35Z"/><path class="cls-3" d="M718.54,397.52l-.2-.28c.06.16.13.26.2.28Z"/><path class="cls-3" d="M716.55,389.3c.53,1.95.9,4.99,1.63,7.71l.16.23c-.51-1.24-1.05-6.15-1.79-7.94Z"/><path class="cls-3" d="M706.59,355.28c.91,2.2,1.7,4.45,2.56,6.66-.33-1.21-.76-2.81.46.2-2.94-8.53.43,1.83-3.02-6.87Z"/><path class="cls-3" d="M697.16,335.25c1.81,3.39.16-.13.32,0-.59-1.06-1.05-1.68-1.12-1.75-.09-.05.2.43.8,1.74Z"/><path class="cls-3" d="M581.94,228.26l.48-.14c-2.72-1.18-.08.1-.48.14Z"/><path class="cls-3" d="M552.82,219.13c.9.32,1.8.64,2.67,1.02l1.38.15c-1.34-.43-2.68-.85-4.05-1.18Z"/><polygon class="cls-3" points="535.95 212.36 537.22 212.6 532.37 211.6 535.95 212.36"/><path class="cls-3" d="M293.88,295.75c.28-.15.58-.3.88-.44,1.26-1.55,1.17-2.18-.88.44Z"/><path class="cls-3" d="M244.21,399.61c-.53,1.18-1.22,4.38-1.38,6.4.24-1.28.52-2.56.75-3.68.22-1.12.52-2.06.63-2.72Z"/><path class="cls-3" d="M397.96,680.09l-2.23-.73c1.39.5,2.75,1.04,4.17,1.45-.65-.23-1.31-.44-1.94-.71Z"/></g><path class="cls-2" d="M465.72,349.44v159.61c0,25.27-7.41,46.06-22.23,62.36-14.82,16.3-34.51,24.45-59.08,24.45s-41.82-3.03-55.5-9.1c-13.68-6.07-20.53-14.16-20.53-24.26,0-16.18,6.82-24.26,20.47-24.26,5.05,0,9.22,1.79,12.51,5.4,3.28,3.6,4.93,7.84,4.93,12.72,0,8.22-3.16,13.62-9.48,16.2,6.85,6.94,21.44,10.41,43.78,10.41,11.68,0,20.57-5.05,26.67-15.14,6.1-10.1,9.66-27.54,10.67-52.34-10.67,5.56-23.75,8.34-39.25,8.34-8.17,0-16.52-1.33-25.06-3.98-8.54-2.65-17.27-7.01-26.18-13.08-8.91-6.07-16.15-15.1-21.72-27.11-5.57-12-8.35-26.09-8.35-42.27,0-28.05,8.56-49.72,25.68-65.02,17.12-15.29,38.46-22.94,64.01-22.94,16.24,0,29.94,3.79,41.1,11.37,18.96-7.58,31.47-11.37,37.53-11.37ZM418.34,503.36v-135.72c-7.88-3.54-17.53-5.31-28.96-5.31-29.72,0-44.59,25.02-44.59,75.06,0,14.66,1.33,27.24,4,37.72,2.67,10.49,6.1,18.14,10.29,22.94,4.19,4.8,8.19,8.15,12.01,10.05,3.81,1.9,7.62,2.84,11.43,2.84,13.72,0,25.66-2.52,35.82-7.58Z"/><path class="cls-2" d="M642.77,349.44v159.61c0,25.27-7.41,46.06-22.22,62.36-14.82,16.3-34.51,24.45-59.08,24.45s-41.81-3.03-55.5-9.1c-13.68-6.07-20.53-14.16-20.53-24.26,0-16.18,6.82-24.26,20.47-24.26,5.05,0,9.22,1.79,12.51,5.4,3.28,3.6,4.93,7.84,4.93,12.72,0,8.22-3.16,13.62-9.48,16.2,6.85,6.94,21.44,10.41,43.78,10.41,11.68,0,20.57-5.05,26.67-15.14,6.1-10.1,9.66-27.54,10.67-52.34-10.67,5.56-23.75,8.34-39.25,8.34-8.17,0-16.52-1.33-25.06-3.98-8.54-2.65-17.27-7.01-26.18-13.08-8.91-6.07-16.15-15.1-21.72-27.11-5.57-12-8.35-26.09-8.35-42.27,0-28.05,8.56-49.72,25.68-65.02,17.12-15.29,38.46-22.94,64.01-22.94,16.24,0,29.94,3.79,41.1,11.37,18.96-7.58,31.47-11.37,37.53-11.37ZM595.38,503.36v-135.72c-7.88-3.54-17.53-5.31-28.96-5.31-29.72,0-44.59,25.02-44.59,75.06,0,14.66,1.33,27.24,4,37.72,2.67,10.49,6.1,18.14,10.29,22.94,4.19,4.8,8.19,8.15,12.01,10.05,3.81,1.9,7.62,2.84,11.43,2.84,13.72,0,25.65-2.52,35.82-7.58Z"/><polygon class="cls-1" points="659.75 418.92 693.62 397.6 653.97 403.05 693.09 394.61 653.97 386.16 693.62 391.61 659.75 370.29 695.14 388.97 670.6 357.36 697.47 387.02 685.23 348.92 700.33 385.97 701.86 345.98 703.38 385.97 718.49 348.92 706.24 387.02 733.11 357.36 708.57 388.97 743.97 370.29 710.09 391.61 749.74 386.16 710.62 394.61 749.74 403.05 710.09 397.6 743.97 418.92 708.57 400.24 733.11 431.85 706.24 402.2 718.49 440.3 703.38 403.24 701.86 443.23 700.33 403.24 685.23 440.3 697.47 402.2 670.6 431.85 695.14 400.24 659.75 418.92"/></svg>