<?xml version="1.0" encoding="UTF-8"?><svg id="Layer_25_copy" xmlns="http://www.w3.org/2000/svg" viewBox="0 0 512 512"><defs><style>.cls-1{fill:#3b2c9b;stroke-width:0px;}</style></defs><path class="cls-1" d="M485.52,391.72c5.69-8.04,10.57-16.7,14.54-25.85v-115.42c-3.97-9.15-8.85-17.81-14.54-25.85v167.13Z"/><path class="cls-1" d="M474.73,211.11c-5.03-5.56-10.49-10.72-16.33-15.44v224.96c5.83-4.71,11.3-9.87,16.33-15.44v-194.08Z"/><path class="cls-1" d="M505.19,264.12v88.08c4.42-13.88,6.81-28.68,6.81-44.04s-2.39-30.16-6.81-44.04Z"/><path class="cls-1" d="M390.54,165.7c-6.33-.96-12.8-1.49-19.37-1.59v288.09c6.57-.09,13.04-.63,19.37-1.59V165.7Z"/><path class="cls-1" d="M340.51,166.97c-65.2,13.36-114.27,71.49-114.27,141.18s49.07,127.82,114.27,141.18V166.97Z"/><path class="cls-1" d="M436.81,181.25c-5.03-2.73-10.24-5.17-15.6-7.29v268.39c5.37-2.12,10.58-4.56,15.6-7.29v-253.81Z"/><line class="cls-1" x1="390.54" y1="159.75" x2="390.54" y2="457.27"/><line class="cls-1" x1="340.51" y1="160.75" x2="340.51" y2="456.16"/><line class="cls-1" x1="474.73" y1="201.59" x2="474.73" y2="414.72"/><line class="cls-1" x1="500.06" y1="235.56" x2="500.06" y2="380.75"/><path class="cls-1" d="M138.39,420.03c15.94,0,33.45-5.17,52.53-15.5,19.08-10.34,28.62-25.84,28.62-46.51,0-33.3-33.89-62.02-101.65-86.14-16.52-5.73-30.04-11.2-40.58-16.37-10.54-5.17-22.08-12.34-34.6-21.53-12.53-9.18-21.93-20.38-28.19-33.59-6.27-13.2-9.4-28.71-9.4-46.51,0-32.15,11.67-57.56,35.02-76.23,23.34-18.65,51.53-27.99,84.57-27.99,19.35,0,39.15,4.31,59.37,12.92,20.21,8.61,31.74,12.92,34.59,12.92,6.83,0,10.25-5.73,10.25-17.23h19.65v103.36h-18.79c-3.42-24.12-14.95-44.5-34.6-61.16-19.65-16.65-42.28-24.98-67.91-24.98-18.23,0-33.46,4.31-45.7,12.92-12.25,8.61-18.37,20.39-18.37,35.32,0,8.61,1.71,16.52,5.12,23.69,3.42,7.19,6.83,12.92,10.25,17.23,3.42,4.31,9.82,9.05,19.22,14.21,9.4,5.17,16.51,8.76,21.36,10.77,4.83,2.02,13.67,5.32,26.48,9.91,12.81,4.6,21.49,7.75,26.05,9.47,29.61,11.49,54.95,27.71,76.03,48.67,21.06,20.97,31.61,45.22,31.61,72.78,0,35.03-13.96,63.03-41.85,83.98-27.91,20.97-63.21,31.44-105.92,31.44-20.5,0-40.44-4.88-59.8-14.64-19.37-9.76-30.19-14.64-32.46-14.64-3.42,0-7.41,2.3-11.96,6.89-4.56,4.6-6.83,9.19-6.83,13.78H0v-121.45h18.79c3.98,29.29,17.51,53.98,40.58,74.08,23.06,20.11,49.4,30.15,79.02,30.15Z"/></svg>