<?xml version="1.0" encoding="UTF-8"?><svg id="Layer_2" xmlns="http://www.w3.org/2000/svg" viewBox="0 0 544.64 551.38"><defs><style>.cls-1{fill:#383098;}.cls-1,.cls-2{stroke-width:0px;}.cls-2{fill:#3b2c9b;}</style></defs><g id="Layer_1-2"><circle class="cls-2" cx="272.94" cy="274.9" r="261.06"/><path class="cls-1" d="M526.69,274.9c.94.86,3.11.36,2.62-1.97l-3.68-1.61,1.06,3.58Z"/><path class="cls-1" d="M532.9,258.94c-1.97-2.69-5.31-5.59-8.51-3.56,3.69,2.43,2.29,3.17,6.67,5.87.52,2.34-1.05,4.16-2.39,3.81.95.8-.71,3.64,1.61,4.85,1.37-1.55,2.06-3.33,2.1-5.2.02-.94-.12-1.9-.42-2.87-.32-.97-.84-1.95-1.5-2.92.74-.92,1.75-.14,2.43.03Z"/><path class="cls-1" d="M427.22,58.08l.99,1.24c-.2-.43-.55-.85-.99-1.24Z"/><path class="cls-1" d="M290.72,7.39c1.13,0,1.63-.33,1.71-.65-1.06.16-1.94.32-1.71.65Z"/><path class="cls-1" d="M265.36,2.92c.55.1,1.02.14,1.52.21-.58-.32-1.17-.49-1.52-.21Z"/><path class="cls-1" d="M427.22,58.08l-2.55-3.22c-.9.82,1.14,1.89,2.55,3.22Z"/><path class="cls-1" d="M520.36,228.8c.31.73.76,1.31,1.3,1.82-.27-.6-.51-1.19-.71-1.8-.2,0-.37,0-.58-.02Z"/><path class="cls-1" d="M477.16,99.74l.79.91c.55,0,1.15-.07,1.79-.2l-2.58-.71Z"/><path class="cls-1" d="M506.65,140.4c-.45-1.06-3.32.16-4.7.47,1.41-.1,2.36.32,3.06,1.06.52-.28,1.06-.76,1.64-1.53Z"/><path class="cls-1" d="M530.44,215.69l.73,1.26c-.21-.32-.47-.89-.73-1.26Z"/><path class="cls-1" d="M452.45,73.56c.24-.4.37-.82.39-1.13-.26.29-.36.68-.39,1.13Z"/><path class="cls-1" d="M513.73,327.88c.21.08.35.06.54.11-.24-.33-.44-.45-.54-.11Z"/><path class="cls-1" d="M534.81,274.9l.15.79c.58.09,1.16.17,1.73.18l-1.87-.96Z"/><path class="cls-1" d="M217.98,4.26c.1.02.13.01.22.02,1.16-.57.48-.38-.22-.02Z"/><path class="cls-1" d="M5.28,332.85c.8-2.68,2.12-.91,3.4.51,1.28,1.43,2.52,2.51,3.21-1.34-1.02.95-6.21-5.49-6.6.82Z"/><path class="cls-1" d="M520.54,227.52c-.15-.62-.29-1.25-.37-1.89.05.88.17,1.47.37,1.89Z"/><path class="cls-1" d="M11.89,332.02h.02s.12-.79.12-.79c-.06.33-.09.51-.14.79Z"/><path class="cls-1" d="M118.55,48.21c.49.32,1.08.41,1.66.48-.21-.24-.63-.42-1.66-.48Z"/><path class="cls-1" d="M192.72,17.15l-2,.24c.83.02,1.46-.1,2-.24Z"/><path class="cls-1" d="M88.68,77.75c-.94.57-1.5.51-2.28,1.83.21.02.38,0,.58-.04.09-.67.47-1.31,1.69-1.79Z"/><path class="cls-1" d="M59.64,109.64c.33-.03.65-.16.98-.24.22-.37.48-.8.71-1.18l-1.7,1.42Z"/><path class="cls-1" d="M462.17,435.19c1.23-.09,2.33.11,3.33.4-2.08-.95,1.13-5.85-3.33-.4Z"/><path class="cls-1" d="M522.06,228.46c-.81-.09-1.25-.36-1.52-.94.12.45.25.88.4,1.29.47.03.9-.02,1.12-.35Z"/><path class="cls-1" d="M104.19,96.67l-4.84,3.98c1.48-.99,3.23-2.44,4.84-3.98Z"/><path class="cls-1" d="M204.26,513.69l1.49.04c-.52-.22-1.04-.27-1.49-.04Z"/><path class="cls-1" d="M87.08,114.58c-1.56.13-2.82.62-3.94,1.28.02.35-.03.7.13,1.06l3.81-2.35Z"/><path class="cls-1" d="M465.53,435.59s-.03-.01-.03-.01c0,0,.02.01.03.01Z"/><path class="cls-1" d="M483.28,397.53c-3.01,5.07,2.03,4.46,3.39,6.76-2.91,6.7-4.34,1.23-7.4,2.16-.74,2.15-.79,4.46-.91,6.59-.17,2.09-.44,3.98-1.48,5.31-.69-.18-1.27.21-1.51-.9-.03,1.43-.54,2.87-1.3,4.34-.38.73-.82,1.47-1.29,2.22-.5.72-1.04,1.45-1.57,2.18-2.15,2.93-4.21,6.04-4.43,9.49-.55.08-.95.02-1.25-.09,2.16.62,3.85,1.83,4.86,2.91-1.76,2.14-1.44,5.59-4.14,4.64,1.18-1.24.46-2.05.35-3.18l-1.03,2.95c-4.58-.54,1.59-3.85-.56-5.68-1.35,2.51-2.51,5.53-3.8,8.26-1.37,2.65-2.9,4.98-4.78,6.18-3.31-1.95,6.03-8.14-.35-6.27.93-.64,1.87-1.26,2.79-1.91l2.7-2.03c-7.69-.12,2.91-2.73-4.82-3.44-.8.71-1.47,1.38-2.05,2.01-.61.6-1.13,1.18-1.58,1.73-.9,1.1-1.55,2.13-2.2,3.15-.65,1.03-1.3,2.05-2.21,3.17-.88,1.13-2.11,2.27-3.84,3.53.05,2.82,2.61,1.76,2.64,4.59-1.59,2.81-3.25,4.22-4.85,4.88-1.63.64-3.25.49-4.73.34-2.98-.32-5.46-.87-7.23,3.96-.18,3.38,2,7.62-4.64,9.67l-.86-4.7c-3.39,2.4-3.4,4.36-3.71,6.04-.29,1.7-.84,3.2-5.25,4.6.33-2.27,4.56-4.96,3.23-4.63-6.55.56-1.87,4.27-5.47,6.83l-2.84-2.59c-1.78,1.31-3.54,2.77-5.3,4.31-1.77,1.53-3.51,3.23-5.4,4.73-3.75,3.08-7.57,6.42-11.89,8.89-.02-1.24.94-3.04-1.64-3.01-1.27.91-2.6,1.78-3.97,2.61-.69.41-1.38.82-2.09,1.21-.72.36-1.46.7-2.2,1.04-2.96,1.34-6.04,2.55-9.15,3.6-3.17.91-6.37,1.7-9.5,2.4-.78.17-1.56.35-2.34.5-.79.12-1.57.24-2.34.37-1.55.23-3.07.45-4.56.67l-3.31,4.53c-1.02.31-2.32-.84-1.4-1.74-4.81.09.37,2.02-1.42,3.85-2.51.95-3.89-.83-2.55-2.21-1.78,1.21-3.98,2.58-6.44,3.93-2.49,1.26-5.25,2.42-8.08,3.44-1.42.5-2.84.98-4.27,1.35-1.44.32-2.87.58-4.26.75-2.78.35-5.42.36-7.69-.11l1.52-1.25c-.86-.02-1.6.11-2.26.29-.66.17-1.24.43-1.77.76-1.05.65-1.88,1.53-2.71,2.37-1.65,1.66-3.33,3.12-6.65,2.02l1.15-.72c-7.44.03-15.17,1.05-22.55,1.06-1.84.03-3.65.06-5.42-.01-1.77-.14-3.5-.32-5.17-.58-1.67-.26-3.28-.59-4.81-1.01-.77-.21-1.51-.45-2.24-.71-.73-.27-1.43-.62-2.11-.97-1.19,2.24-4.82,1.44-8.27.89-.86-.14-1.72-.26-2.53-.32-.81-.08-1.57-.12-2.25-.03-1.36.18-2.4.85-2.84,2.43-4.02-2.13-5.34-3.4-7.11-4.59-1.75-1.25-3.93-2.52-9.47-4.59-3.01-.78-5.36,3.03-9.36,2.82l.67-3.32-5.99,2.27c-.6-1.5-1.16-3.08-1.71-4.64l-3.72-.15c1.34.59,2.57,2.31,2.1,3.19-2.96-.04-6.19-1.57-8.58-3.29-2.37-1.79-3.87-3.84-3.67-4.67l-6.81-.79c-2.29-.26-4.51-.72-6.79-1.08.78-1.16,3.04-.77,4.99-.93-7.89.6.09-3.81-7.13-3.25.53,1.04-1.2,1.7-1.61,2.27-.56-.79-1.44-1.49-2.46-2.27-1.03-.77-2.24-1.5-3.56-2.18-1.32-.68-2.73-1.3-4.15-1.85-.71-.27-1.43-.53-2.13-.76-.7-.25-1.38-.48-2.04-.71l1.96-1.62c-2.13-1.26-4.38-2.42-6.71-3.53-1.17-.54-2.36-1.09-3.56-1.65-1.18-.59-2.37-1.18-3.57-1.78-2.4-1.2-4.88-2.35-7.31-3.64-2.39-1.36-4.77-2.77-7.11-4.28,2.76,3.06-.17,6-3.2,4.51l.87-3.7c-3.04.69,2.17,3-3.05,2.88-3.27-2.77-.01-4.98,2.58-4.57l-4.85-1.92c.37-1.05,1.67-.82,2.7-1.76-1.48.31-2.74-1.69-4.19-3.57-1.48-1.84-3.03-3.72-5.38-3.12l.43-1.02c-2.16-1.71-4.08-3.13-5.86-4.37-1.75-1.28-3.29-2.47-4.83-3.57-1.53-1.11-3.01-2.19-4.56-3.32-1.53-1.16-3.02-2.51-4.7-4.03-2.26,2.12-4.36-.83-8.11-.95-1.99-2.8-3.83-5.98-5.89-9.14-.26-.39-.52-.79-.78-1.19-.25-.41-.5-.82-.75-1.23-.51-.82-1.04-1.63-1.6-2.43-1.11-1.6-2.33-3.16-3.7-4.64-1.24-.81-2.02-1.23-2.56-1.38-.55-.14-.88-.02-1.16.19-.55.42-.89,1.17-2.4.73,1.92-2.12-3.28-8.31.91-6.25-1.56-1.85-2.93-3.3-4.05-4.72-1.13-1.41-2.18-2.66-3.32-3.95-1.14-1.29-2.38-2.61-3.9-4.16-1.43-1.61-3.13-3.46-5.29-5.76-.25,1.74.15,3.3-1.08,3.16-1.62-1.67-1.78-4.97-.45-5.4l.57.34c-5.44-4.82-7.71-12.91-9.41-20.53-.98-3.76-1.62-7.53-2.79-10.75-.58-1.61-1.27-3.1-2.12-4.43-.78-1.36-1.73-2.56-2.92-3.56l.49.46-3.51-4.73c-.58-.8-1.19-1.59-1.76-2.39l-1.64-2.46c-1.22-5.14,3,2.28,3.41-1.97-2.09-2.5-3.49-4.94-4.51-7.3-.9-2.4-1.41-4.71-1.86-6.96-.22-1.12-.44-2.23-.66-3.34l-.37-1.65c-.11-.55-.22-1.11-.35-1.66-.52-2.22-1.29-4.43-2.62-6.73.79-1.18,1.28-2.47,1.54-3.86.32-1.4.42-2.89.35-4.46-.07-1.56-.3-3.2-.62-4.89-.33-1.68-.76-3.41-1.08-5.19-.7-3.54-1.55-7.16-1.9-10.59-.21-3.44-.02-6.68,1.1-9.35l-1.91.72c-2.12-2.59.83-3.33,1.26-5.33-1.51.34-1.69,3.02-2.79,1.39-.36-2.87-.61-5.78-.77-8.71-.06-1.47-.18-2.94-.11-4.41.04-1.47.11-2.95.19-4.43s.19-2.96.3-4.45c.13-1.48.22-2.97.48-4.45.45-2.96.95-5.92,1.48-8.86l.41-2.21.53-2.19,1.08-4.37c.72-2.91,1.4-5.81,2.34-8.65.87-2.85,1.72-5.69,2.53-8.52.95-2.8,1.89-5.57,2.75-8.35,1.16-4.07-.85-5.84-2.41-7.83-1.53-1.96-2.46-4.16,1.27-8.75l2.64,4.02c.04-1.11.09-2.23.21-3.33.15-1.09.33-2.18.54-3.26.42-2.16.94-4.31,1.52-6.44.54-2.15,1.38-4.2,2.16-6.27.8-2.06,1.63-4.11,2.47-6.16.87-2.03,1.86-4.01,2.76-6.02.92-2,1.78-4.02,2.64-6.03.92-1.98,1.79-3.98,2.56-6.01.39-1.02.75-2.05,1.09-3.08.33-1.04.65-2.09,1-3.12.23,1.29,1.14,1.82.39,3.3.97-.5,1.9-1.44,2.7-2.61.79-1.17,1.44-2.57,1.91-3.96.94-2.77,1.15-5.5.26-6.08,1.65-2.12,2,.5,3.81-.3,1.63-1.1,2.13-3.43,2.64-5.55.51-2.11,1.02-4,2.69-4.02.55-.02.11,1.3-.08,1.96.28-2.64,6.57-8.69,2.8-8.65,2.39-2.23,4.05-4.79,5.62-7.26.78-1.23,1.55-2.43,2.4-3.5.43-.53.88-1.04,1.36-1.5.51-.44,1.06-.83,1.65-1.17-.21-2.35,1.92-4.18,3.7-5.89.9-.85,1.7-1.69,2.13-2.55.45-.84.48-1.73-.22-2.74,3.39,3.71,10.54-5.42,12.03-9.8.06,2.02,3.63-1.3,3.9,1.31,3.2-3.27,5.85-6.63,3.54-8.04,5.2-.55,7.55-4.29,10.01-7.36,1.19-1.57,2.34-3.03,3.71-3.91.69-.44,1.43-.73,2.26-.81.84-.07,1.78.09,2.83.51,2.39-2.51,4.77-4.97,7.16-7.36,2.48-2.26,4.96-4.46,7.44-6.61.62-.53,1.24-1.08,1.87-1.59.64-.49,1.29-.99,1.93-1.48,1.29-.97,2.58-1.94,3.86-2.9,1.29-.95,2.58-1.89,3.87-2.83,1.33-.86,2.66-1.71,3.99-2.56.47,1.15-.05,2.15-1.04,3.06-.5.46-1.11.89-1.78,1.31-.66.43-1.37.89-2.06,1.34-2.79,1.79-5.46,3.53-3.91,5.64,2.27-1.89,4.21-3.76,6.02-5.58,1.86-1.74,3.62-3.38,5.41-4.97.9-.79,1.82-1.56,2.77-2.3.48-.37.96-.74,1.46-1.1.51-.34,1.03-.66,1.57-.97,2.15-1.26,4.55-2.39,7.35-3.33,3.04-.63-.72,2.69-1.29,3.88,1.23-.84,2.48-1.61,3.75-2.33,1.26-.72,2.59-1.27,3.89-1.85,2.61-1.13,5.24-2.13,7.81-3.13,2.62-.88,5.2-1.75,7.69-2.78,1.25-.52,2.47-1.07,3.67-1.68,1.21-.57,2.42-1.16,3.59-1.85.1.45-.85,1.24-1.76,1.9,1.94-.72,4.82-.61,3.98-2.72l-1.78,1.14c-2.06-1.12-.57-3.32,1.5-5.48,2.06-2.15,4.67-4.3,4.66-5.15-1.88,7.07,10.73-.81,7.08,8.42,1.22-.72,2.65-2.14,2.02-3.55,2.08-.03,2.88.69,1.26,2.82,1.73-.71,2.85-1.37,3.65-1.95.81-.55,1.3-1.05,1.77-1.52.95-.93,1.86-1.69,5.21-2.26.16,1.08-1.11,1.74-1.56,3.12,1.48-1.34,2.99-2.7,4.86-3.73.47-.26.96-.49,1.48-.71.52-.19,1.07-.34,1.65-.47,1.16-.25,2.46-.37,3.91-.33-.26.7.51,1.46-1.18,1.66,2.42-.39,4.63-1.07,6.76-1.86.53-.2,1.06-.41,1.59-.61.53-.18,1.06-.37,1.58-.55,1.05-.37,2.1-.74,3.16-1.11,2.12-.72,4.3-1.37,6.63-1.77,1.17-.22,2.38-.27,3.64-.26,1.26.02,2.57.13,3.94.35-3.07,4.82,3.74,1.47,4.35,5.56.96-.22,1.91-.48,2.87-.67l2.89-.54-2.31-2.05c2.55.1,4.96-.57,7.3-1.08,2.34-.49,4.61-.94,6.77-.04l-1.94.7-1.94.8c1.6-.12,3.19-.12,4.79-.12l4.8-.03-5.31-1.97c5.34-1.72-.23-5.23,6.61-3.56-1.45.33,5.23.37,7.62,3.23,0,0-.02,0-.02,0,2.68-.98,5.52-2,9.19-.51.79,1.42-1.47,4.39-.96,5.33,1.49-1.54,4.48-1.2,7.58-.93,3.09.3,6.28.5,8.21-.87-1.22.6-1.71,2.7-1.46,3.21l2.64-2.25c2.14,1.41,2.38,1.91,1.62,3.5,6.84,2.1-1.04-5.58,6.76-1.48-.71.07-.5.55-1.96.64,1,.39,2.03.67,3.03.99,1,.32,2.01.59,3.02.83,2.02.48,4.04.83,6.05,1.18,1,.18,2.01.34,2.99.56.98.24,1.94.5,2.9.79,1.91.58,3.76,1.28,5.51,2.24.82,4.64-6.8-1.23-5.42,2.92,2.69.74,5.54,1.2,8.39,1.76,2.87.57,5.75,1.15,8.62,1.72,2.91.53,5.69,1.39,8.41,2.3,1.36.47,2.69.97,3.98,1.53.64.28,1.28.57,1.9.88.61.33,1.21.69,1.79,1.05l-1.62-1.34c1.95-2.29,3.48-.68,5.26,1.47.89,1.08,1.84,2.29,2.95,3.24,1.11.96,2.41,1.6,3.92,1.72-1.38-.31-3.1,1.98-2.46,1.57,3.01,2.25,6.46,3.84,10.55,5.37,2.02.82,4.16,1.69,6.46,2.62,1.16.47,2.36.96,3.6,1.46.62.26,1.25.52,1.9.79.63.29,1.26.61,1.91.92l-1.99.42c1.42,1.83,3.67,3.67,6.01,5.46,1.16.91,2.37,1.76,3.44,2.68,1.07.92,2.07,1.82,2.9,2.69,2.02-.31,4.03,1.58,4.08-1.16.79,1.99,1.78,3.66,2.87,5.16,1.06,1.54,2.25,2.87,3.56,4.05,1.3,1.18,2.7,2.22,4.16,3.18l1.1.71,1.08.73c.73.48,1.46.95,2.18,1.42,1.46.93,2.92,1.86,4.33,2.83,1.4.97,2.79,1.96,3.95,3.16,2.37,2.35,4.29,5.11,5.23,8.67-1.09-1.12-3.52-1.79-2.67-.89l2.16,1.76c.71.6,1.38,1.23,2.08,1.85l4.15,3.74c1.35-2.32.22-2.1.16-5.19,2.06.08,5.05,1.74,6.9,3.88-2.32-1.39-3.08-.72-3.24.61-.15,1.33.31,3.3.4,4.61.38-.78,1.5-.74,2-1.38.09,7.43,4.61-2.41,7.21,5.82l-1.33.47c.6.49,1.25.92,1.9,1.35.63.45,1.27.88,1.9,1.34,1.24.92,2.41,1.96,3.2,3.4-1.62,2.8-2.98-1.83-5.06-.57,1.38,1.79,3.81,2.81,5.91,4.03,2.14,1.19,3.78,2.71,3.68,5.25-1.73-1.19-3.23-3.53-5.06-4.62-.07,1.4-.04,2.43.02,3.27.05.84.17,1.46.35,2,.36,1.08.94,1.83,1.59,3.36l-.11-.31c.91,2.42,1.88,4.8,2.73,7.22-.04-.72-.12-1.43-.21-2.13,4.76.37,6.46,2.78,8.06,5.48.79,1.36,1.55,2.81,2.6,4.19.99,1.42,2.3,2.77,4.3,3.92-7.62-4.46-3,.18-6.21,1.2.06,2.15.46,5.21-.75,4.89,2,.97,2.23,2.52,2.61,4.17.35,1.68.89,3.42,3.72,4.9-.89.65,1.47,3.51-1.33,3.85,2.67,3.84,1.27-1.73,2.65-1.93,3.24,2.49,3.66,6.92,4.48,11.5.2,1.15.42,2.31.7,3.48.23,1.18.51,2.36.91,3.52.79,2.32,2.01,4.55,4.03,6.61.62.97,1.16,1.84,1.69,2.64.54.79,1.07,1.5,1.59,2.15,1.05,1.3,2.09,2.37,3.11,3.43,1.02,1.06,2.04,2.11,3.05,3.38.96,1.28,1.87,2.8,2.79,4.76-.51,1.59-1.6,1.24-2.55.5-.95-.74-1.77-1.85-1.77-1.85-.26,2.4-.13,4.4.34,6.3.46,1.9,1.31,3.67,2.25,5.67-1.07-.67-1.69.36-2.65,1.86.87,3.29,4.25,1.55,3.48,6.28-1.32-.57-3.38-1.23-4.84-2.62.83,1.87,1.92,3.7,3.01,5.56.99,1.88,1.98,3.8,2.72,5.81-1.72,1.33-3.13-2.13-4.52-3.39,1.4,4.46,3.25,11.69,6.18,12.9l.82-3.12c.27,1.71-2.43,1.12-3.11-.06-2.81-3.7.29-5.84,1.33-6.22l1.06,2.88c2.93-1.88,2.29-4.9.88-8.13-.66-1.62-1.72-3.26-2.53-4.88-.83-1.62-1.51-3.21-1.68-4.7l4.95,1.67-4.82-5.42c.48-.77,1.26-1.5,2.11-1.69.85-.19,1.78.15,2.37,1.58.38-1.2.39-2.01.23-2.62-.15-.61-.45-1.03-.73-1.43-.57-.8-1.08-1.51-.28-3.64.29-.5.55-.36.81-.02l-2.3-3.88c1.12.59,2.97-1.47,2.93,1.28.19-2.05-.05-3.81-.61-5.31-.57-1.5-1.35-2.76-2.06-3.88-1.42-2.24-2.56-3.88-1.3-5.79l.45.55c-.56-1.24-1.01-2.18-1.45-2.87-.45-.68-.82-1.12-1.15-1.4-.66-.55-1.15-.44-1.68-.23-1.06.43-2.31,1.23-5.44-1.89,2.05-2.56,4.08-5.18,6.09-7.84l-3.5.14c-.27-1.08-.85-3.2.56-3.3-3.66-3.02-1.11,1.17-4.01-.28.44-3-1.18-6.32-2.49-9.18-1.36-2.84-2.25-5.32-.06-6.98-3.11-.68.3,5.45-3.65,1.02,2.28-1.93,1.37-3.35-.04-4.94-1.48-1.57-3.53-3.27-3.45-6.03,3.32-.03,4.05,4.85,4.17-.73-2.92-.19-3.75-2.42-4.22-5.05-.49-2.62-.77-5.56-2.21-7.14-1.78.91-3.26-.83-4.87-3.46-1.64-2.61-3.62-6.02-6.03-8.58,1.47-.42-5.46-12.06-8.37-18.06l.65-.26c-2,.73-3.87-.33-5.69-1.98-.91-.82-1.82-1.8-2.72-2.77-.9-.98-1.89-1.87-2.83-2.66,1.96-1.41,3.29-1.39,5.83-.03-.97-1.19-2.01-2.33-3.02-3.5-1.7.01-3.15-.62-5.45-2.56l3.02-1.12c-1.04-1.14-2.23-2.15-3.5-3.12-1.31-.93-2.69-1.83-4.06-2.82-1.36-.98-2.71-2.05-3.97-3.32-.63-.63-1.23-1.31-1.81-2.06-.61-.72-1.18-1.5-1.72-2.36-1.14.86-1.39,3.33-2.28,5.03-.89,1.7-2.4,2.64-5.97.54.84-1.3,2.42-3.39,4.41-2.36-.65-.34-2.69-.81-3.26-2.26l4.15.41c-1.79-3.26-2.82.26-4.7-1.85,1.53-1.55-.46-2.58,1.01-3.56.67.35,1.19,2.37,2.56,2.5-1.03-1.25-2.03-2.78-2.76-4.27-.71-1.5-1.25-2.85-1.18-3.91-.61,1.11-1.95,2.18-3.92.85-4.71-3.87.13-3.34-1.86-6.55-2.06.14-4.17-3.49-6.29-1.02-1.39-1.12-.71-2.51-.72-3.63-1.71-.4-4.64-2.68-7.18-4.07-2.55-1.38-4.53-2.04-4.1.39l.52.65c-.16-.03-.31-.13-.5-.18h.02s-.02,0-.02,0c-2.57-.84-4.86-2.11-7.01-3.64-2.17-1.49-4.28-3.12-6.33-4.86-4.05-3.54-8.28-6.92-13.05-8.87l.54-.94c-2.92-1.05-6.09-2.34-9.05-3.53-2.98-1.15-5.78-2.15-8.28-1.93-1.62-.74-3.03-3.55-1.8-4.41-2.31-.59-3.69-.66-5.19-1.14-1.48-.51-3.11-1.29-5.92-3.36,5.11-.02-.89-2.16,5.03.5-5.32-3.09-6.03-5.31-13.21-4.85,3.09-1.89-3.22-4.79-6.27-4.94l3.44,3.27c-3.23-.67-5.86-1.82-8.55-2.97l2.6-2.99c-1.33-1.07-2.75-1.74-4.18-2.27-1.43-.52-2.88-.86-4.33-1.07-2.91-.4-5.77-.42-8.56-.23-2.78.14-5.42.21-7.85-.34-1.22-.27-2.38-.73-3.5-1.34-1.12-.6-2.19-1.43-3.21-2.56-3.76,1.93,6.41,2.98,2.88,5.39-5.51-1.48-10.61-7.75-12.45-8.05-3.84-1.51-5.9-.43-7.96.74-1.03.58-2.07,1.19-3.35,1.49-.64.15-1.34.23-2.14.2-.8-.02-1.69-.11-2.7-.37.95,1.38,1.55,4.92-4.58,5.69-5.58-.91-6.67-6-2.95-6.77,1.39,0,2.03.46,1.94.9,1.89-.33,4.4-.7,2.22-2.29l-.85,1.24c-1.38-.77-4.08-1.28-6.19-1.83-2.1-.52-3.63-1.01-2.64-2.07-4.48,1.13-1.96,2.09,1.25,2.85-3.68-1.04-6.62-1.13-9.56-1.14-1.47,0-2.95-.02-4.55-.02-1.59,0-3.3-.08-5.23-.35,1.24.69,2.38,2.19,1.17,2.21-5.63-.67-6.86-.01-7.59.9-.37.46-.62.98-1.25,1.43-.63.48-1.63.93-3.49,1.21-4.41-1.66,1.22-4.86-6.28-2.61-4.79-.98-1.32-3.37.49-4.58-1.71.76-3.4,1.1-5.03,1.19-1.62.16-3.2.06-4.7-.15-3-.41-5.7-1.23-7.76-1.2l3.6-1.52c-2.16.92-3.99,1.09-5.85,1.39.84.72,1.68,1.51,2.51,2.28-1.12-.1-2.14-.06-2.89-.11-.75-.06-1.25-.25-1.31-.8-1.94,2.08,2.37,3.99-1.59,7.07-1.53-.4-3.62.33-5.52.77-.95.22-1.86.36-2.63.24-.77-.09-1.41-.43-1.83-1.22,1.14-.13,1.97-.23,2.56-.34.6-.12.95-.28,1.15-.45.39-.35.13-.81-.18-1.3-.63-.99-1.49-2.16,2.31-3.13-1.41.68-3.21.97-5.48.93-.4-.31.16-.78.72-1.07-9.31-1.1-3.16,4.73-11.99,6.67.32-1.08-.41-1.86-1.41-2.27-.99-.41-2.23-.38-2.89.02,3.57-.97,2.49,2.68-.31,5.03-5.98.12-5.73,2.8-8.67,3.45l3.51-.26c-.28,1.09-1.12,1.78-2.35,2.39-1.22.63-2.8,1.3-4.59,2.22-.8-1.33,3.1-2.15,1.55-2.33-1.57,2.34-4.19,2.29-7.12,2.2-1.45-.03-3.01-.15-4.47.15-1.46.28-2.88.83-4.12,1.94-3.17-.17-1.6-3.31-4.31-3.21-2.82,2.47-4.84,2.53-6.91,2.71-2.07.14-4.24.27-7.2,2.75,3.07,1.49,3.09.78-.52,5.22l10.26-6.67-5.5,6.67c1.65-.73,3.22-1.89,4.65-2.93,1.43-1.05,2.73-1.97,3.83-2.14-1.31,1.64-1.88,2.36-1.87,2.76.01.41.64.54,1.85,1.19-3-.8-5.02.74-7.02,2.44-1.99,1.74-4.02,3.51-7.1,3.66l-2.72-5.91c-2.26.34-4.18,1.15-5.93,2.22-.88.53-1.71,1.13-2.53,1.77-.4.33-.81.66-1.22.99-.39.36-.78.72-1.18,1.09-1.58,1.48-3.2,3.03-5.08,4.47-1.88,1.45-4.06,2.72-6.61,3.94,1.22-.32,2.4-.69,3.65-.95.04,2.94-5.64,4.01-8.14,6.84-.91-2-3.26-1.44-5.33-1.7,1.07,1.22-6.86,4.69-5.14,8.79-1.9.21-3.87.35-5.74.66-3.94,2.35-5.04,5.18-6.02,7.98-.24.7-.48,1.4-.76,2.1-.26.72-.55,1.43-.92,2.12-.75,1.4-1.81,2.74-3.55,4.01.42-3.49-3.58-2.06-.25-7.17-2.22,1.9-4.48,3.32-3.52,4.48-1.08.06-2.16,1.9-3.3,3.82-1.11,1.95-2.36,3.9-4.03,4.07-.23,1.54,1.06,3.45-1.39,5.54-.56-.07-.74-.77-.74-.77.38.39-.3,1.5-.55,2.53-.25,1.03-.13,1.92,1.68,1.75-2.71.39-5.13,1.74-7.36,3.56-1.12.91-2.19,1.93-3.23,3.01-1,1.11-1.95,2.31-2.89,3.49-1.88,2.37-3.73,4.71-5.68,6.62-1.86,1.98-3.87,3.49-6.21,4.13-.84,1.35-1.72,2.76-2.62,4.2-.89,1.44-1.73,2.97-2.61,4.43-1.72,2.95-3.53,5.74-5.03,8.17-.34-.67-.89-.62-.12-1.4-5.95,5.57,2.58,7.45-4.03,13.73-2.63,1.06-2.46-.2-1.93-1.52.53-1.32,1.5-2.62.16-1.77-3.42-1.37-4.55,1.17-5.69,4.36-1.11,3.22-2.28,7.02-5.45,8.8l.3-1.51c-2.14,1.51-2.85,4.38-3.49,7.65-.71,3.24-1.05,7.02-2.86,10.35,0,0-.42-.59-.97-.48.3,1.56.34,3.31.21,5.16-.16,1.84-.3,3.86-.65,5.86-.32,2.01-.73,4.04-1.17,6.01-.21.99-.47,1.94-.65,2.9-.18.95-.36,1.88-.52,2.77-1.92-3.04-.34-3.6-3.46-3.26-.66,3.21,4.59.66,3.3,6.97-2.09,1.48-4.92,5.45-7.92,5.19.49-1.99,1.18-3.93,1.76-5.9-2.35.88-3.01,2.79-3.18,4.85-.13,2.07.13,4.25-.65,5.71l-1.53-.87c-2.13,9.31,2.24,10.51-.36,20.21l1.5-.74c1.44,3.09.75,4.09-.2,5.07-.93.98-1.99,1.96-.9,4.92l-4.57.9c.1.94.27,2.24.46,3.76.25,1.51.54,3.25.84,5.08.28,1.82.55,3.71.75,5.56.19,1.84.3,3.63.42,5.26-1.52-1.97-2.31-4.89-3-7.96-.66-3.07-1.19-6.28-1.77-8.79-.55,3.6-1.27,12.35.62,14.42-.24-1.48-1.06-3.43-.22-4.79,2.71,4.81,4.09,10.66,3.45,17.71-4.23-.88-4.89,3.79-5.32,9.31-.11,1.38-.22,2.81-.34,4.22-.16,1.41-.19,2.8-.41,4.11-.4,2.61-1.17,4.88-2.77,6.26.43,1.6.73,3.2.97,4.8.3,1.6.5,3.2.64,4.81.3,3.22.23,6.5.25,9.86.09,3.35.11,6.78.26,10.32.04.88.08,1.78.15,2.67.1.89.21,1.79.34,2.69.25,1.81.56,3.64.96,5.49,5.5-6.43.96,4.3,7.39,2.09.49,1.65.86,2.79,1.01,3.57.15.78.11,1.2-.07,1.4-.52,3.67-1.07,7.4-1.52,11.15-.6,1.45-1.2.75-1.79-.24-.56-1-1.12-2.29-1.82-1.95.16.96.24,1.73.27,2.37.04.64.05,1.13,0,1.53-.11.8-.4,1.22-.75,1.56-.71.7-1.66,1.11-1.81,3.85,2.03-1.66,4.05,1.67,4.39,6.19l1.27-6.86c1.6,2.34,2.21,4.15,2.34,5.72.14,1.57-.12,2.87-.43,4.21-.6,2.65-1.17,5.39,2.26,9.97l-3.11-2.57c1.41,2.5,3.36,7.32,5.73,11.95.59,1.16,1.22,2.3,1.87,3.38.71,1.06,1.45,2.06,2.21,2.97,1.54,1.81,3.2,3.21,4.98,3.88-.3,1.22-1.42,3.19-2.88,1.15.61,1.56,1.29,3.15,2.17,4.67.88,1.52,1.85,3.02,2.87,4.51,2.05,2.97,4.18,5.93,6.49,8.67,2.25,2.77,4.34,5.49,6.07,8.14,1.82,2.6,3.23,5.18,3.92,7.81l-1.92.05c1.78,1.83,4.84,1.97,5.3,5.4-.65.26-1.93.11-1.34,1.11,1.24.77,6.17,3.71,7.3,6.94l-3.12-1.19c1.41,3.01,3.24,5.25,5.15,7.13,1.91,1.88,3.93,3.38,5.98,4.74,2.1,1.32,4.28,2.46,6.39,3.76,2.13,1.28,4.14,2.75,6.17,4.51-1.8,1.62-1.24,4.54.18,7.61,1.41,3.07,3.63,6.3,5.27,8.31l-.61.37c2.67,2.74,5.33,5.08,8.06,7.09,2.8,1.93,5.6,3.59,8.41,5.15,2.77,1.61,5.74,2.89,8.65,4.33,2.95,1.41,5.84,2.99,8.99,4.56.98,2.31,2.9,4.65,5.38,7.02,1.22,1.22,2.69,2.28,4.19,3.43,1.52,1.13,3.13,2.26,4.79,3.4.83.57,1.67,1.14,2.52,1.72.86.56,1.74,1.08,2.62,1.62,1.75,1.08,3.51,2.16,5.22,3.27,3.38,2.28,6.75,4.33,9.55,6.6-1.51-1.76,2.04-3.2,4.44-2.51.62.59,1.52.95,2.49,1.22.97.27,2.03.37,2.92.56,1.79.36,2.96.92,1.8,2.84l-1.03-.56c.43,4.94,7.09,6.85,12.02,8.79l2.96-5.08c2.39,3.2,5.77,5.55,9.65,7.01,1.93.77,3.95,1.4,5.98,1.95,1.02.27,2.04.55,3.07.75,1.04.18,2.07.37,3.09.55,2.04.35,4.03.68,5.9,1.04,1.88.34,3.63.83,5.25,1.22,3.23.86,5.78,2.17,7.21,4.44,1.79-.36,3.66-.21,5.56-.26,1.89-.02,3.78-.05,5.52-.48l-.73,3.03c2.25.59,4.21,1.11,6.07,1.6,1.86.48,3.65.74,5.5,1.05,1.85.29,3.78.54,5.96.76,1.09.11,2.24.22,3.48.3,1.24.03,2.57.05,4.01.08l-2.54,2.04c3.24.35,5.48-1.73,7.58-3.87,1.06-1.07,2.08-2.15,3.21-2.95,1.12-.79,2.34-1.31,3.8-1.34l1.57,4.69c2.79.05,5.58.37,8.39.74l2.11.29,2.11.19c1.41.13,2.82.25,4.23.33,2.82.16,5.64.24,8.43-.11,2.78-.42,5.53-1.17,8.2-2.43-.12.69-.34,2.06-2.14,2.38,5.26-.02,20.82.86,18-5.18.18,1.02.99,1.47,2.19,1.52,1.21.06,2.79-.41,4.52-1.03,1.73-.64,3.61-1.49,5.39-2.36,1.78-.89,3.48-1.71,4.83-2.53l-.29,3.21c4.15-4.97,4.04-6.05,10.58-8.67,1.7,0,2.03,2.05-.32,1.79,1.45.1,2.38-.15,3.08-.53.7-.38,1.16-.88,1.65-1.4.99-1.03,2.1-2.09,5.54-2.22l-1.86,2.56c5.55-1.36,4.86-2.15,7.11-5.34,2.97-2.31,10.38-2.67,12.15-.39.14-1.87,2.22-5.12,5.6-5.59.81.81-.08,1.86-.54,2.38,2.41-.39,4.36-1.12,6.03-1.98,1.66-.91,3.01-2.01,4.3-3,2.56-2.03,4.82-3.71,8.41-3.77.56.85,1.17,1.11,1.79,1.14-1.68.88-3.36,1.57-4.86,2.22-1.5.64-2.85,1.21-3.96,1.68-2.23.92-3.53,1.4-3.31,1.18,1.09,2.61,7,.49,4.04,6.1,1.88-2.02,4.28-4.96,6.93-7.54,2.61-2.67,5.42-5.09,8.41-5.86.39.11.77.22,1.17.5l-.41.57c1.37-.39,2.37-1.18,3.18-2.15,1.89-.55,3.12-.86,4.75-1.75.89.84,2.6.22,4.43-.79.91-.51,1.86-1.11,2.74-1.67.89-.56,1.67-1.17,2.35-1.55-1.83-2.5,1.8-4.24-2.71-4.38.52-.08-.28.64-1.95,1.82-.35.31-.8.62-.97.93,0-.1.02-.22.04-.34-1.69,1.08-3.93,2.45-6.49,3.97,1.33-2.58,2.81-4.95,6.61-5.16.33-2.49.66-5.18.96-6.49,2.87.72,6.32.48,9.38.25,1.54-.1,2.94-.26,4.11-.29,1.18-.03,2.13.08,2.74.47,1.68-1.72,3.6-3.45,5.57-5.19,1-.85,1.95-1.77,2.89-2.71.94-.93,1.86-1.87,2.74-2.81,1.75-1.89,3.35-3.79,4.53-5.75,1.13-2.02,1.87-4.05,2.02-6.1,1.49-2.28,3.37-.72,4.73-.69-.77,1.44-2.2,2.56-2.28,3.74.76-1.15,1.86-2.4,3.05-3.68.6-.64,1.21-1.29,1.82-1.94.58-.68,1.16-1.36,1.7-2.04,2.16-2.7,3.71-5.27,2.74-7.15,3.02-1.62,3.02-.33,3,.55,0,.44-.01.76.37.56.38-.21,1.17-.92,2.62-2.71l.03,1.77c4.27-2.14,7.28-5.01,9.56-8.25,2.18-3.33,3.7-6.98,5.26-10.59,1.51-3.66,2.92-7.39,5.22-10.78,1.18-1.68,2.42-3.4,3.99-5.01,1.58-1.61,3.46-3.14,5.76-4.58-1.22.84-1.81,1.26-2.53,1.1,1-1.02,1.99-2.06,2.92-3.15.89-1.11,1.76-2.25,2.61-3.42,1.68-2.33,3.3-4.72,4.81-7.19,1.42-2.52,2.78-5.1,4.11-7.68.66-1.3,1.34-2.58,1.96-3.9l1.78-3.98c1.18-2.66,2.42-5.28,3.62-7.9,1.13-2.66,2.31-5.28,3.59-7.85.63-1.29,1.32-2.55,1.97-3.82.63-1.28,1.29-2.55,1.98-3.8,1.38-2.5,2.92-4.94,4.61-7.31,3.16-5.66.94-7.19.29-11.43l3.61-.3c-.55-2.5-1.21-5-1.83-7.46-.04-2.43.7-4.47,1.82-6.38,1.06-1.93,2.41-3.76,3.76-5.69,1.33-1.94,2.61-3.99,3.4-6.37.71-2.38.85-5.1.08-8.27l-2.47,1.12c.56-2.06.9-5.41,1.22-8.13.29-2.73.76-4.8,1.99-4.28-.35-.49-2.13-1.68-.77-3.18l1.74.08c-.28-1.8-.52-3.58-.85-5.36l-1.09-5.32c.93-3.96,2.63-3.55,4.25-3.59.81-.02,1.6-.16,2.26-1.05.65-.89,1.26-2.52,1.38-5.53-.28-2.26-1.46-5.48-2.73-7.89-1.27-2.41-2.62-4.02-3.22-3.2-.13,1.77-1.2,4.5-2.94,4.6l-.81-3.97c-2.55-.37-5.13-1.29-7.53-.93-2.4.36-4.65,1.97-6.56,6.52l2.97,6.56-2.64,1.94c.13-1.8.09-3.6.08-5.4-1.22,1.49-1.27,2.72-.96,3.88.31,1.15,1.11,2.23,1.73,3.37-1.36.43-2.35,1.26-2.93,2.48,1.46,2.2,2.94,4.45,4.39,6.74-1.04.28-1.94-.53-2.81-.89-.87-.36-1.59-.27-2.42,1.75,1.88,3.18,4.83-2.35,5.68,2.71-2.7,2.82-4.47,1.65-2.95,5.51-1.37.32-2.11-.56-2.5-2.04.56,1.69.53,3.83.5,5.78-.04,1.95.1,3.73,1.3,4.79-1.7,1.34-1.99,4.04-2.45,6.28-.52,2.22-1.27,3.94-3.59,3.26.91,1.21,2.44,6.34,1.97,9.31-2.23-3.35-2.84-.65-3.92,2.41-1.02,3.08-2.22,6.62-5.01,5.05.96,1.31,1.42,2.89,1.36,4.59-.04,1.7-.44,3.56-.94,5.48-.51,1.92-1.08,3.93-1.56,5.91-.54,1.96-.93,3.92-.9,5.83-.24-.52-.74-1.55-.26-2.03-1.86,3.54-3.74,4.01-5.57,5.98,3.77,2.13,2.11,8.18,3.11,12.42-2.9,1.37-3.72.12-4.37-1.47-.65-1.59-1.12-3.52-3.24-3.68,1.63.62,1.58,2.91,1.47,5-.16,2.07-.32,3.97,1.36,3.88-4.01,2.18-2.59,2.32-6.63,2.36,4.45,3.08-.69,3.52.61,7.77-5.01,3.39-5.08-1.3-6.59,4.63-1.4.79-1.86-.2-1.98-1.37-.12-1.17.11-2.53.11-2.53ZM389.01,499.49s-.02-.04-.03-.05c1.06-.63,1.97-1.16,2.55-1.5-.52.32-1.25.77-2.52,1.55ZM378.23,504.8c1.38-.5,3.07-1.2,4.8-2.06.83.75.93,2-.21,2.44.29-.92-2.57-.3-4.58-.38ZM411.62,511.54c-1.57,1.41-2.47,1.23-3.03.82.82-.53,1.75-1.19,2.93-2.11,0-.13.03-.3.02-.45.13.61.22,1.19.08,1.74Z"/><path class="cls-1" d="M412.74,506.22c.22-.2.29-.4.6-.63-.49,0-.95-.01-1.4.03-.04.4-.1.81-.12,1.19.31-.2.63-.4.92-.59Z"/><path class="cls-1" d="M428.39,59.53l-.18-.21c.11.23.2.44.2.68-.06-.22,0-.3-.02-.47Z"/><polygon class="cls-1" points="217.33 515.49 217.17 516.26 218.33 515.82 217.33 515.49"/><path class="cls-1" d="M470.65,113.81c-.13.27-.2.65-.07,1.19.13-.16.12-.63.07-1.19Z"/><path class="cls-1" d="M486.97,137.55l1.26,4.01c-.42-1.81-.86-3.05-1.26-4.01Z"/><path class="cls-1" d="M496.77,157.36c.61,0,1-.12,1.37-.23,0-.02,0-.03,0-.05l-1.37.28Z"/><path class="cls-1" d="M200.29,36.5c-.28.1-.54.21-.76.36-1.7,1.14-.5.51.76-.36Z"/><path class="cls-1" d="M302.57,20.25c-1.18.42-2.33.82-3.51,1.02,1.83.47,3.26.72,3.51-1.02Z"/><path class="cls-1" d="M104.72,96.24s-.02-.02-.03-.05c-.17.17-.33.31-.5.48l.53-.43Z"/><path class="cls-1" d="M294.19,20.85c1.81.76,3.37.74,4.86.42-1.5-.32-3.28-.77-4.86-.42Z"/><path class="cls-1" d="M522.93,248.13v1.06c.21-.04.38,0,.51.07l-.51-1.13Z"/><path class="cls-1" d="M523.44,249.26l.45,1.13c-.04-.54-.1-1-.45-1.13Z"/><path class="cls-1" d="M524.85,252.79l-.96-2.4c.06.85.04,1.91.96,2.4Z"/><path class="cls-1" d="M519.58,219.28l-1.17-.08c.27.13.65.16,1.17.08Z"/><path class="cls-1" d="M517.23,210.76c.33,2.1-1.11,5.71.25,8.38l.93.07c-.97-.49-.68-2.21-.43-4.02.23-1.8.47-3.71-.75-4.43Z"/><path class="cls-1" d="M518.05,170.46c.75,2.51,1.38,5.06,2.07,7.58.61-1.7,1.44-3.99,3.02-.76-.35-10.56-1.7,2.87-5.09-6.82Z"/><path class="cls-1" d="M509.07,147.82c2.42,3.5,1.51-.86,2.2-.99-1.08-.95-1.84-1.49-2.17-1.43-.36.08-.29.76-.03,2.41Z"/><path class="cls-1" d="M382.29,30.09l1.54-2.39c-3.16-.98-.47.98-1.54,2.39Z"/><path class="cls-1" d="M346.55,32.21c.79.83,1.58,1.64,2.34,2.54l2.13-2-2.22-.32c-.74-.1-1.5-.15-2.25-.22Z"/><polygon class="cls-1" points="332.72 7.9 334.22 7.84 328.6 7.59 332.72 7.9"/><path class="cls-1" d="M62.27,101.86l3.3,1.44c.97-2.06-1.72-4.95-3.3-1.44Z"/><path class="cls-1" d="M9.82,218.48c-2.06.98-3.79,4.37-2.51,6.88.37-1.4,1.02-2.75,1.55-3.93.51-1.19,1.03-2.18.96-2.95Z"/><path class="cls-1" d="M177.83,532.72l-2.86.12c1.66.3,3.3.64,4.99.84-.71-.32-1.43-.6-2.13-.96Z"/></g></svg>