<?xml version="1.0" encoding="UTF-8"?><svg id="Layer_2" xmlns="http://www.w3.org/2000/svg" viewBox="0 0 482.07 488.03"><defs><style>.cls-1{fill:#7773bc;}.cls-1,.cls-2{stroke-width:0px;}.cls-2{fill:#7c72bd;}</style></defs><g id="Layer_1-2"><circle class="cls-2" cx="241.58" cy="243.32" r="231.07"/><path class="cls-1" d="M466.17,243.32c.83.76,2.76.32,2.32-1.74l-3.26-1.42.94,3.17Z"/><path class="cls-1" d="M471.67,229.19c-1.75-2.38-4.7-4.94-7.53-3.15,3.27,2.15,2.02,2.8,5.9,5.2.46,2.07-.93,3.68-2.12,3.37.84.71-.63,3.22,1.42,4.3,1.21-1.38,1.82-2.94,1.86-4.6.02-.83-.11-1.68-.37-2.54-.28-.86-.75-1.73-1.32-2.59.65-.81,1.55-.12,2.15.02Z"/><path class="cls-1" d="M378.14,51.41l.88,1.09c-.18-.38-.49-.75-.88-1.09Z"/><path class="cls-1" d="M257.32,6.54c1,0,1.44-.29,1.51-.58-.94.14-1.71.28-1.51.58Z"/><path class="cls-1" d="M234.87,2.58c.49.09.9.13,1.34.19-.52-.28-1.03-.44-1.34-.19Z"/><path class="cls-1" d="M378.14,51.41l-2.26-2.85c-.8.72,1.01,1.67,2.26,2.85Z"/><path class="cls-1" d="M460.57,202.51c.27.65.67,1.16,1.15,1.61-.24-.53-.45-1.05-.63-1.59-.18,0-.33,0-.52-.01Z"/><path class="cls-1" d="M422.33,88.28l.7.8c.48,0,1.02-.06,1.58-.17l-2.28-.63Z"/><path class="cls-1" d="M448.44,124.27c-.4-.94-2.94.14-4.16.42,1.25-.08,2.08.29,2.71.94.46-.25.93-.67,1.45-1.36Z"/><path class="cls-1" d="M469.49,190.9l.64,1.12c-.19-.29-.41-.79-.64-1.12Z"/><path class="cls-1" d="M400.47,65.11c.21-.35.33-.73.34-1-.23.26-.32.6-.34,1Z"/><path class="cls-1" d="M454.7,290.21c.18.07.31.06.48.1-.22-.29-.39-.4-.48-.1Z"/><path class="cls-1" d="M473.36,243.32l.13.7c.52.08,1.02.15,1.53.16l-1.66-.85Z"/><path class="cls-1" d="M192.94,3.77c.09.02.11.01.19.02,1.03-.5.42-.34-.19-.02Z"/><path class="cls-1" d="M4.68,294.6c.71-2.37,1.87-.81,3.01.45,1.13,1.27,2.23,2.22,2.84-1.18-.91.84-5.5-4.86-5.84.73Z"/><path class="cls-1" d="M460.74,201.38c-.13-.55-.25-1.11-.33-1.68.05.78.15,1.3.33,1.68Z"/><path class="cls-1" d="M10.52,293.87h.02s.1-.7.1-.7c-.05.29-.08.45-.12.7Z"/><path class="cls-1" d="M104.93,42.67c.43.28.95.36,1.47.42-.18-.21-.56-.37-1.47-.42Z"/><path class="cls-1" d="M170.57,15.18l-1.77.21c.73.02,1.29-.08,1.77-.21Z"/><path class="cls-1" d="M78.49,68.82c-.83.5-1.33.45-2.01,1.62.18.02.34,0,.52-.03.08-.59.42-1.16,1.5-1.59Z"/><path class="cls-1" d="M52.78,97.04c.29-.03.58-.14.87-.22.2-.33.43-.71.63-1.04l-1.5,1.26Z"/><path class="cls-1" d="M409.06,385.19c1.09-.08,2.06.1,2.95.35-1.84-.84,1-5.18-2.95-.35Z"/><path class="cls-1" d="M462.08,202.21c-.71-.08-1.11-.32-1.35-.83.1.4.23.78.35,1.14.42.03.8-.02.99-.31Z"/><path class="cls-1" d="M92.21,85.57l-4.29,3.53c1.31-.88,2.86-2.16,4.29-3.53Z"/><path class="cls-1" d="M180.79,454.67l1.32.03c-.46-.19-.92-.24-1.32-.03Z"/><path class="cls-1" d="M77.08,101.42c-1.38.12-2.49.55-3.49,1.14.01.31-.03.62.12.94l3.37-2.08Z"/><path class="cls-1" d="M412.04,385.55s-.03,0-.03,0c0,0,.01.01.03,0Z"/><path class="cls-1" d="M427.76,351.86c-2.66,4.49,1.79,3.95,3,5.98-2.58,5.93-3.84,1.09-6.55,1.91-.65,1.9-.7,3.95-.8,5.83-.15,1.85-.39,3.52-1.31,4.7-.61-.16-1.12.18-1.34-.79-.02,1.26-.48,2.54-1.15,3.84-.34.65-.73,1.3-1.14,1.96-.44.64-.92,1.28-1.39,1.93-1.9,2.6-3.72,5.35-3.92,8.4-.49.08-.84.02-1.11-.08,1.91.55,3.41,1.62,4.3,2.58-1.56,1.89-1.28,4.95-3.66,4.11,1.04-1.1.41-1.81.31-2.82l-.91,2.61c-4.05-.48,1.41-3.41-.5-5.03-1.2,2.22-2.22,4.89-3.37,7.31-1.21,2.35-2.57,4.41-4.23,5.47-2.93-1.72,5.33-7.2-.31-5.55l2.47-1.69,2.39-1.79c-6.81-.1,2.57-2.42-4.26-3.04-.71.63-1.3,1.22-1.81,1.78-.54.53-1,1.04-1.4,1.53-.8.98-1.37,1.88-1.95,2.79-1.17,1.79-2.24,3.72-5.36,5.93.04,2.5,2.31,1.55,2.34,4.07-1.41,2.48-2.88,3.73-4.3,4.32-1.44.56-2.88.44-4.18.3-2.63-.29-4.83-.77-6.4,3.51-.16,2.99,1.77,6.74-4.1,8.56l-.76-4.16c-3,2.13-3.01,3.86-3.29,5.34-.26,1.5-.74,2.84-4.65,4.07.29-2.01,4.03-4.39,2.86-4.1-5.8.5-1.66,3.78-4.84,6.05l-2.52-2.29c-1.58,1.16-3.13,2.45-4.69,3.82-1.57,1.35-3.1,2.85-4.78,4.19-3.32,2.73-6.7,5.68-10.53,7.87-.01-1.1.83-2.69-1.45-2.66-1.12.81-2.3,1.58-3.51,2.31-.61.37-1.22.72-1.85,1.07-.64.32-1.29.62-1.94.92-2.62,1.19-5.35,2.26-8.1,3.18-2.81.81-5.64,1.5-8.41,2.12-.69.15-1.38.31-2.07.44-.7.11-1.39.22-2.07.32-1.37.2-2.72.4-4.03.59l-2.93,4.01c-.9.27-2.05-.75-1.24-1.54-4.25.08.33,1.79-1.26,3.41-2.22.84-3.44-.73-2.26-1.96-1.57,1.08-3.52,2.28-5.7,3.48-2.2,1.11-4.65,2.14-7.15,3.05-1.25.44-2.52.87-3.78,1.19-1.27.28-2.54.51-3.77.66-2.46.31-4.8.32-6.81-.1l1.34-1.1c-.76-.02-1.41.1-2,.26-.59.15-1.1.38-1.56.67-.93.57-1.66,1.36-2.4,2.09-1.46,1.47-2.95,2.76-5.88,1.79l1.01-.64c-6.59.03-13.43.93-19.95.94-1.63.03-3.23.05-4.8-.01-1.57-.12-3.1-.28-4.57-.51-1.48-.23-2.9-.52-4.26-.9-1.36-.37-2.65-.83-3.85-1.49-1.06,1.98-4.26,1.28-7.32.79-.77-.12-1.52-.23-2.24-.28-.72-.07-1.39-.11-1.99-.03-1.2.16-2.13.75-2.51,2.15-3.56-1.89-4.73-3.01-6.3-4.07-1.55-1.11-3.48-2.23-8.39-4.06-2.66-.69-4.75,2.68-8.29,2.5l.59-2.94-5.31,2.01c-.53-1.33-1.02-2.73-1.51-4.11l-3.29-.14c1.18.52,2.27,2.05,1.86,2.83-2.62-.04-5.48-1.39-7.59-2.91-2.1-1.58-3.43-3.4-3.25-4.13l-6.03-.7c-2.02-.23-3.99-.64-6.01-.95.69-1.03,2.69-.68,4.42-.83-6.98.53.08-3.37-6.32-2.87.46.92-1.07,1.5-1.42,2.01-.5-.7-1.28-1.32-2.18-2.01-.91-.68-1.98-1.33-3.15-1.93-1.16-.6-2.42-1.15-3.68-1.64-1.27-.47-2.53-.89-3.69-1.3l1.74-1.43c-1.88-1.12-3.87-2.14-5.94-3.12-1.04-.48-2.09-.97-3.15-1.46-1.05-.52-2.1-1.05-3.16-1.58-2.12-1.06-4.32-2.08-6.47-3.22-2.11-1.2-4.22-2.46-6.29-3.79,2.44,2.71-.15,5.31-2.83,4l.77-3.28c-2.69.61,1.92,2.65-2.7,2.55-2.89-2.45-.01-4.41,2.28-4.05l-4.29-1.7c.33-.93,1.48-.72,2.39-1.56-1.31.28-2.43-1.49-3.71-3.16-1.31-1.63-2.68-3.3-4.76-2.76l.38-.9c-1.92-1.52-3.61-2.77-5.19-3.87-1.54-1.14-2.93-2.17-4.27-3.16-1.35-.99-2.66-1.94-4.04-2.94-1.36-1.03-2.68-2.22-4.16-3.56-2,1.88-3.86-.73-7.18-.84-1.76-2.48-3.39-5.29-5.21-8.09-1.79-2.83-3.6-5.79-6.05-8.39-1.1-.72-1.79-1.09-2.27-1.22-.49-.13-.78-.02-1.03.17-.49.37-.78,1.04-2.13.65,1.7-1.87-2.9-7.35.81-5.53-1.38-1.63-2.6-2.92-3.58-4.18-1-1.25-1.93-2.35-2.94-3.49-1.01-1.14-2.11-2.31-3.45-3.68-1.27-1.42-2.77-3.06-4.68-5.09-.22,1.54.13,2.92-.96,2.8-1.43-1.48-1.58-4.4-.4-4.78l.5.31c-4.81-4.27-6.83-11.43-8.33-18.17-.87-3.33-1.43-6.67-2.47-9.51-.51-1.43-1.12-2.75-1.88-3.92-.69-1.2-1.53-2.26-2.58-3.15l.44.41-3.11-4.19-1.56-2.12-1.45-2.17c-1.08-4.55,2.66,2.02,3.02-1.75-1.85-2.21-3.09-4.37-3.99-6.46-.79-2.12-1.25-4.17-1.65-6.16-.2-1-.39-1.98-.59-2.96l-.33-1.46c-.09-.49-.19-.98-.31-1.47-.46-1.96-1.14-3.92-2.32-5.96.7-1.04,1.14-2.19,1.36-3.41.28-1.24.37-2.56.31-3.94-.06-1.38-.26-2.83-.55-4.32-.29-1.49-.68-3.02-.96-4.59-.62-3.13-1.38-6.34-1.68-9.37-.19-3.05-.02-5.91.98-8.28l-1.69.64c-1.87-2.29.74-2.95,1.12-4.72-1.34.3-1.49,2.67-2.47,1.23-.32-2.54-.54-5.11-.68-7.71-.05-1.3-.16-2.6-.1-3.9.04-1.31.1-2.61.17-3.92.07-1.31.16-2.62.27-3.94.11-1.31.19-2.63.42-3.94.4-2.62.84-5.24,1.31-7.85l.36-1.95.47-1.94.95-3.87c.64-2.57,1.24-5.14,2.07-7.66.77-2.53,1.52-5.04,2.24-7.54.84-2.47,1.67-4.93,2.43-7.39,1.02-3.6-.76-5.17-2.13-6.93-1.36-1.74-2.18-3.68,1.12-7.74l2.33,3.56c.03-.98.08-1.97.18-2.95.13-.96.3-1.93.48-2.88.37-1.92.83-3.82,1.35-5.7.48-1.9,1.23-3.71,1.91-5.55.71-1.83,1.45-3.64,2.19-5.45,1.61-3.57,3.3-7.08,4.78-10.66.82-1.75,1.58-3.52,2.27-5.32.34-.9.66-1.81.96-2.73.29-.92.57-1.85.88-2.76.2,1.14,1.01,1.61.34,2.92,1.72-.88,3.27-3.34,4.08-5.81.83-2.45,1.02-4.86.23-5.38,1.46-1.87,1.77.44,3.37-.26,1.44-.97,1.88-3.04,2.34-4.91.45-1.87.91-3.54,2.38-3.56.48-.02.1,1.15-.07,1.73.25-2.33,5.82-7.69,2.48-7.65,2.12-1.97,3.59-4.24,4.97-6.43.69-1.09,1.37-2.15,2.13-3.1.38-.47.78-.92,1.21-1.32.45-.39.93-.74,1.46-1.03-.19-2.08,1.7-3.7,3.28-5.21.8-.75,1.5-1.5,1.88-2.25.39-.74.43-1.53-.19-2.42,3,3.28,9.33-4.8,10.64-8.68.05,1.79,3.21-1.15,3.46,1.16,2.83-2.9,5.18-5.87,3.14-7.12,4.61-.49,6.68-3.8,8.86-6.52,1.06-1.39,2.07-2.68,3.29-3.46.61-.39,1.26-.65,2-.72.74-.06,1.58.08,2.5.45,2.11-2.22,4.22-4.4,6.34-6.51,2.19-2,4.39-3.94,6.59-5.85.55-.47,1.09-.96,1.65-1.41.57-.44,1.14-.87,1.71-1.31,1.14-.86,2.28-1.72,3.41-2.57,1.15-.84,2.29-1.68,3.42-2.51,1.18-.76,2.36-1.52,3.53-2.27.42,1.02-.04,1.9-.92,2.71-.44.4-.98.79-1.58,1.16-.59.38-1.21.79-1.82,1.19-2.47,1.58-4.84,3.13-3.46,5,2-1.67,3.72-3.33,5.33-4.94,1.64-1.54,3.2-2.99,4.79-4.4.8-.7,1.61-1.38,2.45-2.04.42-.33.85-.65,1.29-.97.45-.3.91-.58,1.39-.86,1.91-1.11,4.02-2.11,6.51-2.95,2.69-.56-.64,2.38-1.14,3.43,1.09-.74,2.2-1.42,3.32-2.06,1.12-.64,2.29-1.12,3.44-1.64,2.31-1,4.64-1.88,6.91-2.77,2.32-.78,4.6-1.55,6.8-2.46,1.1-.46,2.19-.95,3.25-1.49,1.07-.5,2.14-1.03,3.17-1.63.09.4-.75,1.1-1.56,1.68,1.72-.63,4.26-.54,3.52-2.4l-1.57,1.01c-1.82-.99-.5-2.94,1.32-4.85,1.82-1.91,4.14-3.81,4.12-4.56-1.67,6.25,9.49-.71,6.27,7.45,1.08-.64,2.35-1.9,1.79-3.14,1.85-.03,2.55.61,1.11,2.5,1.53-.63,2.52-1.21,3.23-1.73.72-.48,1.15-.93,1.57-1.34.84-.82,1.65-1.49,4.61-2,.14.96-.98,1.54-1.38,2.76,2.62-2.37,5.36-4.87,10.53-4.63-.23.62.45,1.29-1.05,1.47,2.14-.35,4.1-.95,5.98-1.65.47-.18.94-.36,1.41-.54.47-.16.93-.33,1.4-.49.93-.33,1.86-.66,2.8-.98,1.88-.64,3.8-1.22,5.87-1.57,2.06-.36,4.28-.29,6.71.08-2.72,4.27,3.31,1.3,3.85,4.92.85-.19,1.69-.42,2.54-.59l2.56-.48-2.04-1.82c2.25.09,4.39-.5,6.46-.96,2.07-.43,4.08-.83,5.99-.04l-1.72.62-1.71.71c1.41-.11,2.83-.1,4.24-.11l4.25-.02-4.7-1.74c4.73-1.52-.2-4.63,5.85-3.15-1.28.29,4.63.33,6.75,2.86,0,0-.02,0-.02,0,2.37-.86,4.88-1.77,8.14-.45.7,1.26-1.3,3.89-.85,4.72,1.32-1.37,3.97-1.06,6.71-.82,2.74.26,5.56.44,7.27-.77-1.08.53-1.51,2.39-1.29,2.84l2.33-2c1.9,1.25,2.11,1.69,1.44,3.1,6.06,1.86-.92-4.94,5.99-1.31-.63.06-.44.48-1.73.57.89.35,1.79.6,2.68.88.89.28,1.78.52,2.67.74,1.78.42,3.58.74,5.35,1.05.89.16,1.78.3,2.65.49.86.21,1.72.44,2.56.7,1.69.51,3.33,1.14,4.88,1.98.72,4.11-6.02-1.09-4.79,2.58,2.38.65,4.9,1.06,7.43,1.55,2.54.51,5.09,1.02,7.63,1.53,2.58.47,5.04,1.23,7.45,2.04,1.2.41,2.38.86,3.52,1.35.57.25,1.13.5,1.68.78.54.29,1.07.61,1.58.93l-1.44-1.19c1.72-2.03,3.08-.61,4.66,1.3,1.57,1.93,3.37,4.25,6.08,4.39-1.22-.28-2.74,1.75-2.18,1.39,2.66,2,5.72,3.4,9.34,4.75,1.79.73,3.68,1.49,5.72,2.32,1.02.42,2.08.85,3.19,1.29.55.23,1.11.46,1.68.7.56.25,1.12.54,1.69.82l-1.77.37c1.26,1.62,3.25,3.25,5.32,4.84,1.02.8,2.1,1.55,3.05,2.37.95.82,1.83,1.62,2.56,2.38,1.79-.28,3.57,1.39,3.61-1.03.7,1.76,1.57,3.24,2.54,4.56.93,1.36,2,2.54,3.15,3.58,2.3,2.09,4.99,3.64,7.54,5.34,1.29.83,2.59,1.64,3.83,2.5,1.24.86,2.47,1.74,3.5,2.8,2.1,2.08,3.8,4.52,4.63,7.67-.97-.99-3.12-1.58-2.37-.79l1.91,1.56c.63.53,1.22,1.09,1.84,1.64l3.67,3.31c1.2-2.05.19-1.86.14-4.59,1.82.07,4.47,1.54,6.1,3.43-2.05-1.23-2.73-.63-2.87.54-.13,1.17.27,2.92.35,4.08.34-.69,1.33-.65,1.77-1.22.08,6.58,4.08-2.14,6.38,5.15l-1.17.42c.53.43,1.11.82,1.68,1.2.56.4,1.13.78,1.68,1.19,1.1.82,2.13,1.74,2.83,3.01-1.43,2.48-2.64-1.62-4.48-.5,2.4,3.15,8.73,3.63,8.49,8.22-1.53-1.05-2.86-3.13-4.48-4.09-.06,1.24-.04,2.15.02,2.89.04.74.15,1.29.31,1.77.31.95.83,1.62,1.41,2.98l-.1-.28c.81,2.15,1.67,4.25,2.42,6.39-.04-.64-.11-1.26-.18-1.88,4.22.33,5.72,2.46,7.14,4.85.7,1.21,1.37,2.48,2.3,3.71.88,1.26,2.04,2.45,3.81,3.47-6.75-3.94-2.65.16-5.5,1.06.05,1.9.41,4.61-.67,4.33,1.77.86,1.98,2.23,2.31,3.69.31,1.48.79,3.03,3.29,4.34-.78.57,1.3,3.1-1.18,3.41,2.36,3.4,1.12-1.53,2.35-1.71,2.87,2.2,3.24,6.13,3.97,10.18.18,1.02.37,2.05.62,3.08.2,1.04.45,2.09.8,3.11.7,2.05,1.77,4.03,3.57,5.85,2.06,3.47,3.82,5.4,5.66,7.27.91.94,1.8,1.87,2.7,3,.85,1.14,1.66,2.48,2.47,4.21-.45,1.41-1.41,1.09-2.26.45-.84-.65-1.57-1.64-1.57-1.64-.23,2.13-.11,3.9.3,5.58.41,1.68,1.16,3.25,1.99,5.02-.95-.6-1.5.32-2.34,1.65.77,2.91,3.76,1.37,3.08,5.55-1.17-.51-2.99-1.09-4.29-2.32.74,1.66,1.7,3.27,2.66,4.92.87,1.66,1.75,3.36,2.41,5.14-1.52,1.18-2.77-1.88-4-3,1.24,3.95,2.88,10.34,5.47,11.41l.72-2.76c.24,1.51-2.15.99-2.76-.06-2.49-3.28.26-5.17,1.18-5.5l.94,2.55c2.59-1.67,2.03-4.34.78-7.19-.59-1.43-1.52-2.89-2.24-4.32-.74-1.43-1.34-2.84-1.49-4.16l4.38,1.48-4.27-4.8c.43-.68,1.11-1.32,1.87-1.5.75-.17,1.58.13,2.1,1.39.33-1.06.34-1.78.2-2.32-.13-.54-.39-.91-.65-1.26-.5-.71-.96-1.34-.25-3.22.26-.44.48-.32.72-.02l-2.03-3.44c.99.53,2.63-1.31,2.6,1.13.17-1.81-.05-3.37-.54-4.7-.51-1.32-1.2-2.44-1.82-3.43-1.26-1.98-2.27-3.43-1.15-5.13l.4.48c-.5-1.1-.9-1.93-1.28-2.54-.4-.6-.73-.99-1.02-1.24-.59-.49-1.01-.39-1.48-.21-.94.38-2.04,1.09-4.82-1.67,1.81-2.27,3.61-4.58,5.39-6.94l-3.09.12c-.24-.95-.76-2.83.49-2.92-3.24-2.68-.98,1.03-3.55-.24.39-2.66-1.05-5.6-2.2-8.12-1.21-2.51-1.99-4.71-.06-6.18-2.75-.6.27,4.82-3.23.9,2.02-1.71,1.22-2.96-.04-4.37-1.31-1.39-3.12-2.89-3.06-5.34,2.94-.02,3.59,4.29,3.69-.65-2.58-.17-3.32-2.14-3.73-4.47-.43-2.31-.68-4.92-1.96-6.32-1.58.8-2.89-.74-4.31-3.06-1.45-2.31-3.21-5.32-5.33-7.59,1.3-.37-4.83-10.68-7.41-15.99l.58-.23c-1.77.65-3.42-.29-5.04-1.75-.81-.73-1.61-1.59-2.41-2.45-.79-.86-1.67-1.66-2.5-2.36,1.74-1.25,2.91-1.23,5.16-.03-.86-1.06-1.78-2.06-2.67-3.1-1.5.01-2.79-.55-4.82-2.27l2.67-.99c-.92-1-1.97-1.9-3.1-2.76-1.16-.82-2.38-1.62-3.59-2.5-1.21-.87-2.4-1.82-3.51-2.93-.56-.56-1.09-1.16-1.6-1.82-.54-.63-1.05-1.32-1.52-2.09-1.01.76-1.23,2.95-2.02,4.45-.78,1.51-2.13,2.34-5.28.48.75-1.15,2.14-3,3.9-2.09-.58-.3-2.38-.72-2.88-2l3.67.37c-1.59-2.89-2.5.23-4.16-1.64,1.35-1.37-.41-2.28.89-3.15.6.31,1.05,2.1,2.27,2.22-.91-1.11-1.8-2.46-2.44-3.78-.63-1.33-1.11-2.53-1.05-3.46-.54.98-1.73,1.93-3.47.75-4.17-3.43.12-2.96-1.65-5.8-1.82.12-3.69-3.09-5.57-.91-1.23-.99-.63-2.22-.63-3.21-1.52-.36-4.11-2.37-6.35-3.6-2.25-1.22-4.01-1.81-3.63.34l.46.58c-.14-.03-.27-.12-.44-.16h.02s-.02,0-.02,0c-2.27-.74-4.3-1.87-6.2-3.22-1.92-1.32-3.79-2.76-5.6-4.3-3.58-3.14-7.33-6.13-11.55-7.86l.48-.83c-2.59-.93-5.39-2.07-8.01-3.12-2.64-1.02-5.12-1.9-7.33-1.71-1.44-.65-2.69-3.14-1.59-3.9-2.04-.53-3.27-.59-4.59-1.01-1.31-.45-2.75-1.14-5.24-2.97,4.52-.02-.78-1.91,4.45.44-4.71-2.73-5.34-4.7-11.69-4.29,2.74-1.67-2.85-4.24-5.55-4.38l3.05,2.89c-2.86-.59-5.19-1.61-7.57-2.63l2.3-2.64c-1.18-.95-2.43-1.54-3.7-2.01-1.27-.46-2.55-.76-3.83-.95-2.57-.35-5.11-.37-7.58-.2-2.46.12-4.8.19-6.95-.3-1.08-.24-2.1-.64-3.1-1.19-.99-.53-1.94-1.27-2.84-2.26-3.33,1.71,5.68,2.64,2.55,4.77-4.87-1.31-9.39-6.86-11.02-7.13-3.4-1.34-5.22-.38-7.05.65-.91.52-1.83,1.05-2.97,1.32-.57.14-1.19.21-1.89.17-.7-.02-1.49-.1-2.39-.32.84,1.22,1.37,4.35-4.06,5.03-4.94-.8-5.9-5.31-2.61-5.99,1.23,0,1.8.41,1.72.79,1.67-.29,3.89-.62,1.96-2.03l-.76,1.1c-1.23-.68-3.61-1.13-5.48-1.62-1.86-.46-3.21-.9-2.33-1.83-3.97,1-1.73,1.85,1.11,2.52-3.26-.92-5.86-1-8.46-1.01-1.3,0-2.61-.01-4.02-.02-1.41,0-2.92-.07-4.63-.31,1.1.61,2.11,1.94,1.04,1.96-4.98-.59-6.07-.01-6.72.79-.33.4-.55.86-1.11,1.27-.55.43-1.44.82-3.09,1.07-3.9-1.47,1.08-4.3-5.56-2.31-4.24-.87-1.17-2.99.43-4.05-1.52.68-3.01.97-4.45,1.05-1.44.14-2.83.05-4.16-.13-2.65-.36-5.05-1.09-6.87-1.07l3.18-1.35c-1.91.81-3.53.97-5.18,1.23.74.64,1.49,1.34,2.22,2.02-.99-.09-1.9-.05-2.56-.09-.67-.06-1.1-.23-1.16-.7-1.72,1.84,2.1,3.53-1.41,6.26-1.35-.36-3.21.3-4.89.68-.84.19-1.64.31-2.33.21-.68-.08-1.24-.38-1.62-1.08,1-.11,1.74-.2,2.27-.3.53-.11.84-.24,1.02-.4.35-.31.12-.71-.16-1.15-.56-.88-1.32-1.91,2.04-2.77-1.25.6-2.84.86-4.85.82-.36-.27.14-.69.63-.95-8.24-.98-2.8,4.18-10.61,5.9.28-.95-.37-1.64-1.25-2.01-.88-.36-1.97-.34-2.56.02,3.16-.86,2.21,2.37-.27,4.45-5.29.1-5.07,2.48-7.67,3.06l3.11-.23c-.25.97-.99,1.57-2.08,2.12-1.08.56-2.48,1.15-4.06,1.96-.71-1.18,2.74-1.91,1.37-2.07-1.39,2.07-3.71,2.03-6.3,1.94-1.29-.03-2.66-.13-3.96.13-1.3.25-2.55.74-3.64,1.72-2.8-.15-1.41-2.93-3.81-2.84-2.49,2.18-4.28,2.24-6.11,2.4-1.83.13-3.76.24-6.38,2.44,2.72,1.32,2.74.69-.46,4.62l9.08-5.9-4.87,5.91c1.46-.64,2.85-1.67,4.12-2.59,1.26-.93,2.41-1.74,3.39-1.89-1.16,1.45-1.67,2.09-1.66,2.44.01.36.57.48,1.64,1.05-2.66-.71-4.44.65-6.21,2.16-1.76,1.54-3.56,3.11-6.28,3.24l-2.4-5.23c-2,.3-3.7,1.02-5.25,1.96-.77.47-1.51,1-2.24,1.57-.36.29-.72.58-1.08.87-.35.32-.69.64-1.05.97-1.4,1.31-2.83,2.68-4.5,3.95-1.66,1.29-3.59,2.41-5.85,3.48,1.08-.28,2.13-.61,3.23-.84.03,2.6-4.99,3.55-7.2,6.05-.8-1.77-2.88-1.27-4.72-1.5.94,1.08-6.07,4.15-4.55,7.78-1.68.18-3.43.31-5.08.58-3.49,2.08-4.46,4.59-5.32,7.07-.22.62-.43,1.24-.67,1.85-.23.63-.49,1.26-.82,1.88-.66,1.24-1.6,2.43-3.14,3.55.37-3.09-3.17-1.82-.22-6.35-1.97,1.68-3.96,2.94-3.11,3.97-.96.05-1.91,1.69-2.92,3.38-.99,1.73-2.08,3.45-3.57,3.61-.2,1.36.94,3.05-1.23,4.9-.5-.06-.66-.68-.66-.68.33.35-.27,1.33-.49,2.24-.22.91-.12,1.7,1.49,1.55-2.4.34-4.54,1.54-6.51,3.15-.99.8-1.93,1.71-2.85,2.67-.89.99-1.72,2.04-2.56,3.09-1.67,2.09-3.3,4.17-5.02,5.86-1.65,1.75-3.42,3.09-5.5,3.65-.74,1.19-1.53,2.44-2.32,3.72-.79,1.28-1.53,2.62-2.31,3.92-1.52,2.61-3.13,5.08-4.45,7.23-.3-.59-.79-.55-.1-1.24-5.27,4.93,2.28,6.59-3.56,12.16-2.33.94-2.18-.17-1.71-1.35.47-1.16,1.33-2.32.14-1.57-3.03-1.21-4.03,1.03-5.04,3.86-.98,2.85-2.02,6.22-4.82,7.78l.27-1.34c-1.89,1.33-2.52,3.88-3.09,6.77-.63,2.87-.93,6.21-2.53,9.16,0,0-.38-.53-.86-.43.26,1.38.3,2.93.18,4.56-.14,1.63-.27,3.42-.57,5.19-.53,3.57-1.56,7.16-2.07,10.34-1.7-2.7-.3-3.19-3.06-2.88-.59,2.84,4.06.59,2.92,6.17-1.85,1.31-4.36,4.82-7.01,4.6.44-1.76,1.04-3.48,1.56-5.22-2.08.78-2.67,2.47-2.81,4.29-.12,1.83.11,3.76-.57,5.06l-1.36-.77c-1.89,8.24,1.98,9.3-.32,17.88l1.33-.66c1.28,2.74.66,3.62-.18,4.49-.82.87-1.76,1.73-.8,4.35l-4.05.8c.09.83.24,1.99.41,3.33.22,1.34.48,2.88.74,4.5.25,1.61.49,3.29.66,4.92.17,1.63.27,3.21.37,4.65-1.35-1.75-2.04-4.33-2.65-7.04-.58-2.71-1.05-5.56-1.57-7.78-.49,3.19-1.12,10.93.55,12.77-.21-1.31-.94-3.04-.19-4.24,2.4,4.26,3.62,9.43,3.05,15.68-3.74-.77-4.33,3.35-4.71,8.24-.5,4.89-.24,10.47-3.11,12.91.38,1.42.65,2.83.86,4.25.26,1.41.44,2.83.57,4.26.26,2.85.2,5.76.22,8.72.08,2.96.1,6,.23,9.13.04.78.07,1.57.13,2.36.09.79.19,1.58.3,2.38.22,1.6.5,3.22.85,4.86,4.87-5.69.85,3.8,6.54,1.85.43,1.46.76,2.47.89,3.16.13.69.1,1.06-.06,1.24-.46,3.25-.94,6.55-1.35,9.87-.53,1.29-1.06.67-1.58-.21-.49-.89-.99-2.03-1.61-1.73.26,1.7.31,2.75.23,3.46-.09.71-.35,1.08-.67,1.38-.63.62-1.47.98-1.61,3.41,1.8-1.47,3.59,1.47,3.88,5.48l1.13-6.07c1.41,2.07,1.95,3.67,2.07,5.07.13,1.39-.1,2.54-.38,3.72-.53,2.34-1.04,4.77,2,8.83l-2.75-2.28c1.25,2.21,2.98,6.48,5.07,10.58.53,1.02,1.08,2.03,1.66,2.99.63.94,1.28,1.83,1.96,2.63,1.36,1.6,2.83,2.84,4.41,3.43-.27,1.08-1.26,2.83-2.55,1.02.54,1.38,1.14,2.79,1.92,4.13.78,1.34,1.64,2.68,2.54,4,1.81,2.63,3.7,5.25,5.74,7.67,1.99,2.45,3.84,4.86,5.37,7.21,1.62,2.3,2.86,4.59,3.47,6.91l-1.7.04c1.57,1.62,4.28,1.74,4.69,4.78-.58.23-1.71.1-1.19.98,1.1.68,5.46,3.29,6.46,6.14l-2.76-1.06c1.25,2.66,2.87,4.64,4.56,6.31,1.69,1.67,3.48,2.99,5.3,4.2,3.77,2.3,7.59,4.14,11.11,7.32-1.59,1.43-1.1,4.02.16,6.73,1.25,2.72,3.22,5.58,4.66,7.36l-.54.32c2.36,2.43,4.72,4.5,7.13,6.27,2.48,1.71,4.96,3.18,7.44,4.56,2.45,1.43,5.08,2.56,7.66,3.84,2.61,1.25,5.17,2.64,7.95,4.04.87,2.04,2.57,4.12,4.76,6.21,2.21,2.08,5.03,4.01,7.95,6.04.74.5,1.48,1.01,2.23,1.52.76.49,1.54.95,2.32,1.43,1.55.95,3.11,1.91,4.62,2.89,2.99,2.01,5.97,3.83,8.45,5.84-1.34-1.56,1.8-2.83,3.93-2.22.55.52,1.35.84,2.2,1.08.86.24,1.8.33,2.59.5,1.58.32,2.62.82,1.6,2.51l-.91-.49c.38,4.37,6.28,6.07,10.64,7.78l2.62-4.49c2.11,2.83,5.11,4.91,8.54,6.21,1.7.68,3.49,1.24,5.3,1.73.9.24,1.81.48,2.72.67.92.16,1.83.33,2.73.49,3.62.59,7.02,1.21,9.87,2,2.86.76,5.12,1.92,6.38,3.93,1.58-.32,3.24-.19,4.92-.23,1.68-.02,3.35-.04,4.89-.42l-.64,2.69c1.99.52,3.73.98,5.38,1.41,1.65.43,3.23.65,4.87.93,1.64.26,3.35.48,5.28.67.97.1,1.99.19,3.08.27,1.1.02,2.28.05,3.55.07l-2.25,1.8c2.87.31,4.85-1.53,6.71-3.43.93-.95,1.85-1.91,2.84-2.61.99-.7,2.07-1.16,3.36-1.19l1.39,4.15c2.47.05,4.94.32,7.42.66l1.86.26,1.87.17c1.25.11,2.49.22,3.74.29,2.49.14,4.99.21,7.46-.09,2.46-.37,4.9-1.03,7.26-2.15-.11.61-.3,1.82-1.9,2.11,4.66-.02,18.43.76,15.93-4.58.16.91.87,1.3,1.94,1.35,1.07.05,2.47-.36,4-.91,3.06-1.15,6.63-2.97,9.04-4.33l-.26,2.84c3.68-4.4,3.57-5.35,9.36-7.67,1.51,0,1.79,1.81-.28,1.58,1.28.09,2.11-.13,2.73-.47.62-.33,1.02-.78,1.46-1.24.88-.91,1.86-1.85,4.9-1.97l-1.64,2.27c4.91-1.21,4.3-1.9,6.29-4.73,2.63-2.05,9.19-2.36,10.75-.35.13-1.66,1.96-4.53,4.96-4.95.72.71-.07,1.64-.48,2.11,2.13-.34,3.86-.99,5.34-1.76,1.47-.8,2.66-1.78,3.8-2.66,2.27-1.8,4.26-3.28,7.45-3.34.5.75,1.03.99,1.58,1.01-1.49.78-2.97,1.39-4.3,1.96-1.33.56-2.52,1.07-3.5,1.48-1.97.81-3.12,1.24-2.93,1.04.97,2.31,6.19.43,3.57,5.4,1.66-1.78,3.79-4.39,6.13-6.67,2.31-2.37,4.8-4.5,7.44-5.19.34.1.68.19,1.03.44l-.36.5c1.21-.35,2.1-1.05,2.81-1.91,1.67-.49,2.77-.76,4.21-1.55.78.74,2.3.19,3.92-.7.81-.45,1.64-.98,2.43-1.48.79-.5,1.48-1.03,2.08-1.37-1.62-2.21,1.6-3.75-2.4-3.88.46-.07-.25.57-1.72,1.61-.31.27-.71.55-.85.82,0-.09.02-.2.04-.3-1.5.95-3.48,2.16-5.74,3.52,1.18-2.28,2.49-4.38,5.85-4.57.29-2.2.58-4.59.85-5.75,2.54.64,5.59.43,8.3.22,1.36-.09,2.6-.23,3.64-.26,1.04-.02,1.89.08,2.43.41,1.49-1.53,3.19-3.05,4.93-4.59.88-.75,1.73-1.57,2.55-2.4.83-.82,1.65-1.65,2.42-2.49,1.55-1.67,2.96-3.36,4.01-5.09,1-1.79,1.66-3.59,1.79-5.4,1.32-2.02,2.99-.64,4.18-.61-.68,1.27-1.95,2.27-2.02,3.31.67-1.02,1.64-2.12,2.7-3.25.53-.56,1.07-1.14,1.61-1.72.52-.6,1.03-1.21,1.5-1.8,1.91-2.39,3.28-4.66,2.43-6.33,2.68-1.43,2.67-.29,2.66.49,0,.39-.01.68.33.49.33-.19,1.04-.82,2.32-2.4l.02,1.57c3.78-1.89,6.44-4.44,8.46-7.3,1.93-2.95,3.28-6.18,4.66-9.37,1.33-3.24,2.58-6.54,4.62-9.54,1.04-1.49,2.14-3.01,3.53-4.43,1.39-1.43,3.06-2.78,5.1-4.06-1.08.74-1.6,1.11-2.24.97.89-.9,1.76-1.82,2.58-2.79.79-.99,1.56-1.99,2.31-3.02,1.49-2.06,2.92-4.18,4.26-6.37,1.26-2.23,2.46-4.51,3.63-6.8.58-1.15,1.19-2.28,1.73-3.45l1.58-3.53c1.07-2.33,2.14-4.67,3.21-6.99,1-2.35,2.04-4.68,3.17-6.95.56-1.14,1.17-2.25,1.74-3.38.56-1.14,1.14-2.26,1.75-3.37,1.22-2.22,2.58-4.37,4.08-6.47,2.8-5.01.83-6.36.26-10.12l3.19-.27c-.49-2.21-1.07-4.43-1.62-6.6-.03-2.15.62-3.95,1.61-5.65.94-1.71,2.14-3.32,3.33-5.04,1.18-1.71,2.31-3.54,3.01-5.64.63-2.11.76-4.52.07-7.32l-2.19.99c.49-1.82.79-4.79,1.08-7.2.25-2.41.67-4.25,1.76-3.79-.31-.43-1.89-1.49-.68-2.81l1.54.07c-.25-1.59-.46-3.17-.75-4.74l-.96-4.71c.82-3.51,2.33-3.14,3.76-3.17.72-.02,1.41-.14,2-.93.58-.78,1.12-2.23,1.22-4.9-.49-4.03-4.2-11.3-5.26-9.81-.11,1.57-1.06,3.99-2.6,4.07l-.71-3.51c-2.25-.32-4.54-1.14-6.67-.83-2.12.32-4.12,1.75-5.8,5.77l2.63,5.81-2.34,1.71c.11-1.59.08-3.19.07-4.78-1.08,1.31-1.12,2.41-.85,3.43.28,1.02.98,1.97,1.53,2.98-1.2.38-2.08,1.12-2.6,2.2,1.3,1.95,2.6,3.94,3.88,5.96-.92.25-1.72-.47-2.49-.79-.77-.32-1.41-.24-2.15,1.55,1.67,2.82,4.27-2.08,5.03,2.4-2.39,2.5-3.95,1.46-2.61,4.88-1.21.29-1.86-.49-2.21-1.81.5,1.49.46,3.39.45,5.11-.03,1.72.09,3.3,1.15,4.24-1.5,1.19-1.76,3.58-2.17,5.56-.46,1.96-1.13,3.48-3.18,2.89.81,1.07,2.16,5.62,1.74,8.24-1.97-2.97-2.51-.57-3.47,2.13-.9,2.73-1.96,5.86-4.43,4.47.85,1.16,1.26,2.56,1.2,4.06-.04,1.51-.39,3.15-.83,4.85-.45,1.7-.95,3.48-1.38,5.23-.48,1.73-.82,3.47-.8,5.16-.21-.46-.65-1.37-.23-1.8-1.65,3.13-3.31,3.55-4.93,5.29,3.34,1.88,1.87,7.24,2.76,10.99-5.11,2.39-2.97-4.32-6.74-4.55,1.44.55,1.4,2.57,1.3,4.43-.14,1.83-.29,3.51,1.2,3.43-3.55,1.93-2.29,2.05-5.87,2.09,3.94,2.73-.61,3.12.54,6.88-4.44,3-4.49-1.15-5.84,4.1-1.24.7-1.65-.18-1.75-1.22-.1-1.04.1-2.24.1-2.24ZM344.32,442.1s-.02-.04-.03-.05c.94-.55,1.74-1.03,2.25-1.33-.46.29-1.11.68-2.23,1.38ZM334.77,446.8c1.22-.44,2.71-1.07,4.24-1.82.74.67.82,1.77-.19,2.16.26-.81-2.28-.26-4.06-.34ZM364.33,452.76c-1.39,1.25-2.19,1.09-2.68.72.72-.47,1.55-1.05,2.6-1.87,0-.11.03-.27.02-.4.12.54.19,1.06.07,1.54Z"/><path class="cls-1" d="M365.32,448.05c.19-.18.26-.35.53-.56-.43,0-.84,0-1.24.02-.04.36-.08.72-.11,1.05.28-.18.56-.36.82-.52Z"/><path class="cls-1" d="M379.17,52.69l-.16-.19c.1.2.18.39.17.6-.05-.2,0-.27-.02-.41Z"/><polygon class="cls-1" points="192.36 456.26 192.22 456.94 193.24 456.56 192.36 456.26"/><path class="cls-1" d="M416.57,100.74c-.12.24-.17.57-.06,1.05.12-.14.1-.56.06-1.05Z"/><path class="cls-1" d="M431.02,121.75l1.12,3.55c-.37-1.6-.76-2.7-1.12-3.55Z"/><path class="cls-1" d="M439.69,139.28c.54,0,.89-.11,1.21-.21,0-.02,0-.03,0-.04l-1.21.25Z"/><path class="cls-1" d="M177.28,32.31c-.24.08-.48.19-.68.32-1.5,1.01-.44.45.68-.32Z"/><path class="cls-1" d="M267.8,17.92c-1.04.37-2.06.73-3.11.91,1.62.42,2.88.63,3.11-.91Z"/><path class="cls-1" d="M92.69,85.18s-.02-.02-.03-.04c-.15.15-.29.28-.45.43l.47-.38Z"/><path class="cls-1" d="M260.39,18.45c1.6.67,2.98.65,4.3.38-1.33-.29-2.9-.69-4.3-.38Z"/><path class="cls-1" d="M462.85,219.62v.94c.19-.03.34,0,.45.07l-.45-1Z"/><path class="cls-1" d="M463.3,220.62l.4,1c-.04-.48-.09-.89-.4-1Z"/><path class="cls-1" d="M464.55,223.75l-.85-2.12c.05.76.03,1.69.85,2.12Z"/><path class="cls-1" d="M459.88,194.09l-1.04-.07c.24.11.57.14,1.04.07Z"/><path class="cls-1" d="M457.8,186.54c.3,1.86-.98,5.05.22,7.42l.82.06c-.86-.43-.6-1.95-.38-3.56.21-1.6.42-3.29-.67-3.92Z"/><path class="cls-1" d="M458.53,150.87c.67,2.22,1.22,4.48,1.83,6.71.54-1.5,1.27-3.53,2.67-.67-.31-9.35-1.5,2.54-4.5-6.03Z"/><path class="cls-1" d="M450.58,130.84c2.14,3.1,1.33-.76,1.95-.87-.95-.85-1.63-1.32-1.92-1.26-.32.07-.25.67-.03,2.14Z"/><path class="cls-1" d="M338.36,26.64l1.36-2.12c-2.8-.87-.42.87-1.36,2.12Z"/><path class="cls-1" d="M306.74,28.51c.7.73,1.4,1.45,2.07,2.25l1.89-1.77c-1.31-.2-2.62-.38-3.96-.48Z"/><polygon class="cls-1" points="294.49 6.99 295.82 6.93 290.85 6.72 294.49 6.99"/><path class="cls-1" d="M55.12,90.16l2.92,1.27c.86-1.82-1.52-4.38-2.92-1.27Z"/><path class="cls-1" d="M8.69,193.38c-1.83.87-3.36,3.87-2.22,6.09.33-1.24.9-2.43,1.37-3.48.45-1.05.91-1.93.85-2.61Z"/><path class="cls-1" d="M157.4,471.51l-2.53.11c1.47.26,2.92.57,4.42.74-.63-.28-1.27-.53-1.88-.85Z"/></g></svg>